G04 #@! TF.GenerationSoftware,KiCad,Pcbnew,7.0.5*
G04 #@! TF.CreationDate,2024-02-23T12:49:32-06:00*
G04 #@! TF.ProjectId,CoilFiringBoard_Hardware,436f696c-4669-4726-996e-67426f617264,rev?*
G04 #@! TF.SameCoordinates,Original*
G04 #@! TF.FileFunction,Copper,L2,Bot*
G04 #@! TF.FilePolarity,Positive*
%FSLAX46Y46*%
G04 Gerber Fmt 4.6, Leading zero omitted, Abs format (unit mm)*
G04 Created by KiCad (PCBNEW 7.0.5) date 2024-02-23 12:49:32*
%MOMM*%
%LPD*%
G01*
G04 APERTURE LIST*
G04 #@! TA.AperFunction,ComponentPad*
%ADD10C,3.000000*%
G04 #@! TD*
G04 #@! TA.AperFunction,ComponentPad*
%ADD11R,25.400000X38.100000*%
G04 #@! TD*
G04 #@! TA.AperFunction,ComponentPad*
%ADD12C,2.000000*%
G04 #@! TD*
G04 #@! TA.AperFunction,ComponentPad*
%ADD13R,3.200000X3.200000*%
G04 #@! TD*
G04 #@! TA.AperFunction,ComponentPad*
%ADD14O,3.200000X3.200000*%
G04 #@! TD*
G04 #@! TA.AperFunction,ComponentPad*
%ADD15C,1.524000*%
G04 #@! TD*
G04 #@! TA.AperFunction,ComponentPad*
%ADD16C,3.800000*%
G04 #@! TD*
G04 #@! TA.AperFunction,ComponentPad*
%ADD17R,2.500000X4.500000*%
G04 #@! TD*
G04 #@! TA.AperFunction,ComponentPad*
%ADD18O,2.500000X4.500000*%
G04 #@! TD*
G04 APERTURE END LIST*
D10*
X105300000Y-81356200D03*
X123300000Y-81356200D03*
D11*
X76200000Y-95662750D03*
D12*
X93472000Y-87630000D03*
X93472000Y-97630000D03*
D13*
X101600000Y-50254000D03*
D14*
X114300000Y-50254000D03*
D15*
X96899000Y-101596000D03*
X94359000Y-101596000D03*
D13*
X101600000Y-63500000D03*
D14*
X114300000Y-63500000D03*
D16*
X101600000Y-44196000D03*
D11*
X152400000Y-57753250D03*
D13*
X101600000Y-56896000D03*
D14*
X114300000Y-56896000D03*
D17*
X108850000Y-103632000D03*
D18*
X114300000Y-103632000D03*
X119750000Y-103632000D03*
D11*
X76200000Y-57753250D03*
D16*
X114300000Y-110744000D03*
D10*
X105300000Y-99060000D03*
X123300000Y-99060000D03*
D13*
X101600000Y-70104000D03*
D14*
X114300000Y-70104000D03*
D11*
X152400000Y-95662750D03*
D17*
X108850000Y-85935000D03*
D18*
X114300000Y-85935000D03*
X119750000Y-85935000D03*
G04 #@! TA.AperFunction,Conductor*
G36*
X104591039Y-38628185D02*
G01*
X104636794Y-38680989D01*
X104648000Y-38732500D01*
X104647999Y-79099366D01*
X104628314Y-79166405D01*
X104575510Y-79212160D01*
X104563859Y-79216785D01*
X104432315Y-79261439D01*
X104166332Y-79392607D01*
X104166317Y-79392616D01*
X103919720Y-79557387D01*
X103696737Y-79752937D01*
X103501187Y-79975920D01*
X103336416Y-80222517D01*
X103336407Y-80222532D01*
X103205238Y-80488517D01*
X103109905Y-80769356D01*
X103109902Y-80769370D01*
X103052045Y-81060240D01*
X103052041Y-81060267D01*
X103032645Y-81356192D01*
X103032645Y-81356207D01*
X103052041Y-81652132D01*
X103052042Y-81652142D01*
X103052043Y-81652149D01*
X103052045Y-81652159D01*
X103109902Y-81943029D01*
X103109905Y-81943043D01*
X103205235Y-82223874D01*
X103205244Y-82223895D01*
X103336409Y-82489870D01*
X103336416Y-82489883D01*
X103501187Y-82736479D01*
X103696737Y-82959462D01*
X103870866Y-83112168D01*
X103919722Y-83155014D01*
X104166322Y-83319787D01*
X104310228Y-83390753D01*
X104432304Y-83450955D01*
X104432307Y-83450956D01*
X104432321Y-83450963D01*
X104563858Y-83495614D01*
X104621012Y-83535801D01*
X104647365Y-83600511D01*
X104647999Y-83613032D01*
X104648000Y-85220000D01*
X104628315Y-85287039D01*
X104575512Y-85332794D01*
X104524000Y-85344000D01*
X88900000Y-85344000D01*
X88900000Y-114683500D01*
X88880315Y-114750539D01*
X88827511Y-114796294D01*
X88776000Y-114807500D01*
X66041741Y-114807500D01*
X66038264Y-114807402D01*
X65924508Y-114801013D01*
X65752330Y-114790599D01*
X65745683Y-114789835D01*
X65609655Y-114766722D01*
X65460780Y-114739440D01*
X65454789Y-114738032D01*
X65318604Y-114698798D01*
X65317322Y-114698413D01*
X65177183Y-114654744D01*
X65171899Y-114652831D01*
X65039426Y-114597959D01*
X65037707Y-114597216D01*
X64905398Y-114537668D01*
X64900851Y-114535393D01*
X64774613Y-114465624D01*
X64772528Y-114464419D01*
X64649064Y-114389781D01*
X64645260Y-114387287D01*
X64527272Y-114303571D01*
X64524912Y-114301811D01*
X64411666Y-114213088D01*
X64408589Y-114210512D01*
X64300568Y-114113980D01*
X64298041Y-114111590D01*
X64196408Y-114009957D01*
X64194018Y-114007430D01*
X64097486Y-113899409D01*
X64094910Y-113896332D01*
X64080874Y-113878416D01*
X64006176Y-113783072D01*
X64004427Y-113780726D01*
X63920711Y-113662738D01*
X63918217Y-113658934D01*
X63843579Y-113535470D01*
X63842374Y-113533385D01*
X63772605Y-113407147D01*
X63770330Y-113402600D01*
X63710754Y-113270227D01*
X63710058Y-113268617D01*
X63655164Y-113136092D01*
X63653259Y-113130830D01*
X63609569Y-112990624D01*
X63609200Y-112989394D01*
X63604307Y-112972409D01*
X63569963Y-112853198D01*
X63568561Y-112847232D01*
X63541288Y-112698416D01*
X63518161Y-112562299D01*
X63517401Y-112555691D01*
X63506989Y-112383549D01*
X63502686Y-112306927D01*
X63500598Y-112269735D01*
X63500500Y-112266259D01*
X63500500Y-41149739D01*
X63500598Y-41146262D01*
X63503140Y-41100980D01*
X63506993Y-41032372D01*
X63517401Y-40860304D01*
X63518160Y-40853704D01*
X63541281Y-40717623D01*
X63568562Y-40568758D01*
X63569960Y-40562810D01*
X63609225Y-40426518D01*
X63609552Y-40425428D01*
X63653264Y-40285155D01*
X63655159Y-40279921D01*
X63710080Y-40147330D01*
X63710732Y-40145820D01*
X63770343Y-40013370D01*
X63772599Y-40008861D01*
X63842393Y-39882579D01*
X63843542Y-39880591D01*
X63918221Y-39757057D01*
X63920701Y-39753274D01*
X64004461Y-39635226D01*
X64006145Y-39632967D01*
X64094932Y-39519638D01*
X64097472Y-39516605D01*
X64194052Y-39408531D01*
X64196373Y-39406077D01*
X64298077Y-39304373D01*
X64300531Y-39302052D01*
X64408605Y-39205472D01*
X64411638Y-39202932D01*
X64524967Y-39114145D01*
X64527226Y-39112461D01*
X64645274Y-39028701D01*
X64649057Y-39026221D01*
X64772591Y-38951542D01*
X64774579Y-38950393D01*
X64900861Y-38880599D01*
X64905370Y-38878343D01*
X65037820Y-38818732D01*
X65039330Y-38818080D01*
X65171921Y-38763159D01*
X65177155Y-38761264D01*
X65317428Y-38717552D01*
X65318518Y-38717225D01*
X65454810Y-38677960D01*
X65460758Y-38676562D01*
X65609626Y-38649281D01*
X65745704Y-38626160D01*
X65752304Y-38625401D01*
X65924288Y-38614998D01*
X66015501Y-38609875D01*
X66038264Y-38608598D01*
X66041740Y-38608500D01*
X104524000Y-38608500D01*
X104591039Y-38628185D01*
G37*
G04 #@! TD.AperFunction*
G04 #@! TA.AperFunction,Conductor*
G36*
X116783039Y-47263685D02*
G01*
X116828794Y-47316489D01*
X116840000Y-47368000D01*
X116840000Y-113160000D01*
X116820315Y-113227039D01*
X116767511Y-113272794D01*
X116716000Y-113284000D01*
X106296000Y-113284000D01*
X106228961Y-113264315D01*
X106183206Y-113211511D01*
X106172000Y-113160000D01*
X106172000Y-105932803D01*
X106837500Y-105932803D01*
X106837501Y-105932819D01*
X106848168Y-106037235D01*
X106848169Y-106037241D01*
X106904236Y-106206440D01*
X106997811Y-106358149D01*
X107123851Y-106484189D01*
X107275560Y-106577764D01*
X107444759Y-106633831D01*
X107549189Y-106644500D01*
X110150810Y-106644499D01*
X110255241Y-106633831D01*
X110424440Y-106577764D01*
X110576149Y-106484189D01*
X110702189Y-106358149D01*
X110795764Y-106206440D01*
X110851831Y-106037241D01*
X110862500Y-105932811D01*
X110862499Y-101331190D01*
X110851831Y-101226759D01*
X110795764Y-101057560D01*
X110702189Y-100905851D01*
X110576149Y-100779811D01*
X110424440Y-100686236D01*
X110329117Y-100654649D01*
X110255242Y-100630169D01*
X110255235Y-100630168D01*
X110150812Y-100619500D01*
X107549196Y-100619500D01*
X107549180Y-100619501D01*
X107444757Y-100630169D01*
X107275562Y-100686235D01*
X107275553Y-100686239D01*
X107123373Y-100780105D01*
X107055981Y-100798545D01*
X107005029Y-100782553D01*
X107020328Y-100833532D01*
X107001367Y-100899558D01*
X107001603Y-100899704D01*
X107001083Y-100900546D01*
X107001043Y-100900687D01*
X107000686Y-100901189D01*
X106904237Y-101057557D01*
X106904235Y-101057562D01*
X106848169Y-101226757D01*
X106848168Y-101226764D01*
X106837500Y-101331181D01*
X106837500Y-105932803D01*
X106172000Y-105932803D01*
X106172000Y-101229740D01*
X106191685Y-101162701D01*
X106241156Y-101118528D01*
X106364787Y-101057560D01*
X106433678Y-101023587D01*
X106680278Y-100858814D01*
X106814571Y-100741041D01*
X106877953Y-100711639D01*
X106944145Y-100720754D01*
X106935887Y-100654649D01*
X106965049Y-100592807D01*
X107098813Y-100440279D01*
X107098814Y-100440278D01*
X107263587Y-100193678D01*
X107394763Y-99927679D01*
X107490097Y-99646835D01*
X107547957Y-99355949D01*
X107567355Y-99060000D01*
X107567355Y-99059992D01*
X107547958Y-98764067D01*
X107547957Y-98764051D01*
X107490097Y-98473165D01*
X107394763Y-98192321D01*
X107388657Y-98179939D01*
X107263592Y-97926332D01*
X107263583Y-97926317D01*
X107261364Y-97922996D01*
X107098814Y-97679722D01*
X107055968Y-97630866D01*
X106903262Y-97456737D01*
X106680279Y-97261187D01*
X106433674Y-97096410D01*
X106241156Y-97001471D01*
X106189737Y-96954166D01*
X106172000Y-96890259D01*
X106172000Y-88235803D01*
X106837500Y-88235803D01*
X106837501Y-88235819D01*
X106848168Y-88340235D01*
X106848169Y-88340241D01*
X106904236Y-88509440D01*
X106997811Y-88661149D01*
X107123851Y-88787189D01*
X107275560Y-88880764D01*
X107444759Y-88936831D01*
X107549189Y-88947500D01*
X110150810Y-88947499D01*
X110255241Y-88936831D01*
X110424440Y-88880764D01*
X110576149Y-88787189D01*
X110702189Y-88661149D01*
X110795764Y-88509440D01*
X110851831Y-88340241D01*
X110862500Y-88235811D01*
X110862499Y-83634190D01*
X110851831Y-83529759D01*
X110795764Y-83360560D01*
X110702189Y-83208851D01*
X110576149Y-83082811D01*
X110424440Y-82989236D01*
X110383784Y-82975764D01*
X110255242Y-82933169D01*
X110255235Y-82933168D01*
X110150812Y-82922500D01*
X107549196Y-82922500D01*
X107549180Y-82922501D01*
X107444757Y-82933169D01*
X107275562Y-82989235D01*
X107275557Y-82989237D01*
X107123845Y-83082814D01*
X107118551Y-83087001D01*
X107053754Y-83113138D01*
X107052523Y-83112904D01*
X107037617Y-83164812D01*
X107020587Y-83186075D01*
X106997810Y-83208851D01*
X106904237Y-83360557D01*
X106904235Y-83360562D01*
X106848169Y-83529757D01*
X106848168Y-83529764D01*
X106837500Y-83634181D01*
X106837500Y-88235803D01*
X106172000Y-88235803D01*
X106172000Y-83525936D01*
X106191684Y-83458901D01*
X106241156Y-83414728D01*
X106351004Y-83360557D01*
X106433678Y-83319787D01*
X106680278Y-83155014D01*
X106851146Y-83005166D01*
X106914527Y-82975764D01*
X106920373Y-82976569D01*
X106940450Y-82918068D01*
X106948411Y-82907978D01*
X107098814Y-82736478D01*
X107263587Y-82489878D01*
X107394763Y-82223879D01*
X107490097Y-81943035D01*
X107547957Y-81652149D01*
X107567355Y-81356200D01*
X107567355Y-81356192D01*
X107547958Y-81060267D01*
X107547957Y-81060251D01*
X107490097Y-80769365D01*
X107394763Y-80488521D01*
X107388656Y-80476139D01*
X107263592Y-80222532D01*
X107263583Y-80222517D01*
X107261364Y-80219196D01*
X107098814Y-79975922D01*
X107055968Y-79927066D01*
X106903262Y-79752937D01*
X106680279Y-79557387D01*
X106433674Y-79392610D01*
X106241156Y-79297671D01*
X106189737Y-79250366D01*
X106172000Y-79186459D01*
X106172000Y-47368000D01*
X106191685Y-47300961D01*
X106244489Y-47255206D01*
X106296000Y-47244000D01*
X116716000Y-47244000D01*
X116783039Y-47263685D01*
G37*
G04 #@! TD.AperFunction*
G04 #@! TA.AperFunction,Conductor*
G36*
X162561736Y-38608598D02*
G01*
X162596351Y-38610541D01*
X162675549Y-38614989D01*
X162847691Y-38625401D01*
X162854299Y-38626161D01*
X162990416Y-38649288D01*
X163139232Y-38676561D01*
X163145198Y-38677963D01*
X163281426Y-38717209D01*
X163282624Y-38717569D01*
X163422830Y-38761259D01*
X163428092Y-38763164D01*
X163560617Y-38818058D01*
X163562227Y-38818754D01*
X163694609Y-38878334D01*
X163699147Y-38880605D01*
X163825385Y-38950374D01*
X163827451Y-38951568D01*
X163871408Y-38978141D01*
X163950934Y-39026217D01*
X163954738Y-39028711D01*
X164072726Y-39112427D01*
X164075072Y-39114176D01*
X164170416Y-39188874D01*
X164188332Y-39202910D01*
X164191409Y-39205486D01*
X164299430Y-39302018D01*
X164301957Y-39304408D01*
X164403590Y-39406041D01*
X164405980Y-39408568D01*
X164502512Y-39516589D01*
X164505088Y-39519666D01*
X164593811Y-39632912D01*
X164595571Y-39635272D01*
X164679287Y-39753260D01*
X164681781Y-39757064D01*
X164756419Y-39880528D01*
X164757624Y-39882613D01*
X164827393Y-40008851D01*
X164829668Y-40013398D01*
X164889216Y-40145707D01*
X164889959Y-40147426D01*
X164944831Y-40279899D01*
X164946744Y-40285183D01*
X164990413Y-40425322D01*
X164990798Y-40426604D01*
X165030032Y-40562789D01*
X165031440Y-40568780D01*
X165058722Y-40717655D01*
X165081835Y-40853683D01*
X165082599Y-40860330D01*
X165093013Y-41032508D01*
X165099402Y-41146263D01*
X165099500Y-41149740D01*
X165099500Y-112266259D01*
X165099402Y-112269736D01*
X165093013Y-112383490D01*
X165082599Y-112555668D01*
X165081835Y-112562315D01*
X165058722Y-112698343D01*
X165031440Y-112847218D01*
X165030032Y-112853209D01*
X164990798Y-112989394D01*
X164990413Y-112990676D01*
X164946744Y-113130815D01*
X164944831Y-113136099D01*
X164889959Y-113268572D01*
X164889216Y-113270291D01*
X164829668Y-113402600D01*
X164827393Y-113407147D01*
X164757624Y-113533385D01*
X164756419Y-113535470D01*
X164681781Y-113658934D01*
X164679287Y-113662738D01*
X164595571Y-113780726D01*
X164593811Y-113783086D01*
X164505088Y-113896332D01*
X164502512Y-113899409D01*
X164405980Y-114007430D01*
X164403590Y-114009957D01*
X164301957Y-114111590D01*
X164299430Y-114113980D01*
X164191409Y-114210512D01*
X164188332Y-114213088D01*
X164075086Y-114301811D01*
X164072726Y-114303571D01*
X163954738Y-114387287D01*
X163950934Y-114389781D01*
X163827470Y-114464419D01*
X163825385Y-114465624D01*
X163699147Y-114535393D01*
X163694600Y-114537668D01*
X163562291Y-114597216D01*
X163560572Y-114597959D01*
X163428099Y-114652831D01*
X163422815Y-114654744D01*
X163282676Y-114698413D01*
X163281394Y-114698798D01*
X163145209Y-114738032D01*
X163139218Y-114739440D01*
X162990343Y-114766722D01*
X162854315Y-114789835D01*
X162847668Y-114790599D01*
X162675490Y-114801013D01*
X162561736Y-114807402D01*
X162558259Y-114807500D01*
X117980000Y-114807500D01*
X117912961Y-114787815D01*
X117867206Y-114735011D01*
X117856000Y-114683500D01*
X117856000Y-99060007D01*
X121032645Y-99060007D01*
X121052041Y-99355932D01*
X121052042Y-99355942D01*
X121052043Y-99355949D01*
X121052045Y-99355959D01*
X121109902Y-99646829D01*
X121109905Y-99646843D01*
X121205235Y-99927674D01*
X121205244Y-99927695D01*
X121336409Y-100193670D01*
X121336416Y-100193683D01*
X121501187Y-100440279D01*
X121696737Y-100663262D01*
X121870866Y-100815968D01*
X121919722Y-100858814D01*
X122166322Y-101023587D01*
X122310228Y-101094553D01*
X122432304Y-101154755D01*
X122432309Y-101154757D01*
X122432321Y-101154763D01*
X122713165Y-101250097D01*
X123004051Y-101307957D01*
X123032474Y-101309820D01*
X123299993Y-101327355D01*
X123300000Y-101327355D01*
X123300007Y-101327355D01*
X123536927Y-101311825D01*
X123595949Y-101307957D01*
X123886835Y-101250097D01*
X124167679Y-101154763D01*
X124433678Y-101023587D01*
X124680278Y-100858814D01*
X124903262Y-100663262D01*
X125098814Y-100440278D01*
X125263587Y-100193678D01*
X125394763Y-99927679D01*
X125490097Y-99646835D01*
X125547957Y-99355949D01*
X125567355Y-99060000D01*
X125547957Y-98764051D01*
X125490097Y-98473165D01*
X125394763Y-98192321D01*
X125388657Y-98179939D01*
X125263592Y-97926332D01*
X125263583Y-97926317D01*
X125261364Y-97922996D01*
X125098814Y-97679722D01*
X125055968Y-97630866D01*
X124903262Y-97456737D01*
X124680279Y-97261187D01*
X124433683Y-97096416D01*
X124433680Y-97096414D01*
X124433678Y-97096413D01*
X124433666Y-97096407D01*
X124167695Y-96965244D01*
X124167674Y-96965235D01*
X123886843Y-96869905D01*
X123886837Y-96869903D01*
X123886835Y-96869903D01*
X123595949Y-96812043D01*
X123595942Y-96812042D01*
X123595932Y-96812041D01*
X123300007Y-96792645D01*
X123299993Y-96792645D01*
X123004067Y-96812041D01*
X123004055Y-96812042D01*
X123004051Y-96812043D01*
X123004043Y-96812044D01*
X123004040Y-96812045D01*
X122713170Y-96869902D01*
X122713156Y-96869905D01*
X122432317Y-96965238D01*
X122166332Y-97096407D01*
X122166317Y-97096416D01*
X121919720Y-97261187D01*
X121696737Y-97456737D01*
X121501187Y-97679720D01*
X121336416Y-97926317D01*
X121336407Y-97926332D01*
X121205238Y-98192317D01*
X121109905Y-98473156D01*
X121109902Y-98473170D01*
X121052045Y-98764040D01*
X121052041Y-98764067D01*
X121032645Y-99059992D01*
X121032645Y-99060007D01*
X117856000Y-99060007D01*
X117856000Y-81356207D01*
X121032645Y-81356207D01*
X121052041Y-81652132D01*
X121052042Y-81652142D01*
X121052043Y-81652149D01*
X121052045Y-81652159D01*
X121109902Y-81943029D01*
X121109905Y-81943043D01*
X121205235Y-82223874D01*
X121205244Y-82223895D01*
X121336409Y-82489870D01*
X121336416Y-82489883D01*
X121501187Y-82736479D01*
X121696737Y-82959462D01*
X121870866Y-83112168D01*
X121919722Y-83155014D01*
X122166322Y-83319787D01*
X122310228Y-83390753D01*
X122432304Y-83450955D01*
X122432309Y-83450957D01*
X122432321Y-83450963D01*
X122713165Y-83546297D01*
X123004051Y-83604157D01*
X123032474Y-83606020D01*
X123299993Y-83623555D01*
X123300000Y-83623555D01*
X123300007Y-83623555D01*
X123536927Y-83608025D01*
X123595949Y-83604157D01*
X123886835Y-83546297D01*
X124167679Y-83450963D01*
X124433678Y-83319787D01*
X124680278Y-83155014D01*
X124903262Y-82959462D01*
X125098814Y-82736478D01*
X125263587Y-82489878D01*
X125394763Y-82223879D01*
X125490097Y-81943035D01*
X125547957Y-81652149D01*
X125567355Y-81356200D01*
X125547957Y-81060251D01*
X125490097Y-80769365D01*
X125394763Y-80488521D01*
X125388657Y-80476139D01*
X125263592Y-80222532D01*
X125263583Y-80222517D01*
X125261364Y-80219196D01*
X125098814Y-79975922D01*
X125055968Y-79927066D01*
X124903262Y-79752937D01*
X124680279Y-79557387D01*
X124433683Y-79392616D01*
X124433680Y-79392614D01*
X124433678Y-79392613D01*
X124433666Y-79392607D01*
X124167695Y-79261444D01*
X124167674Y-79261435D01*
X123886843Y-79166105D01*
X123886837Y-79166103D01*
X123886835Y-79166103D01*
X123595949Y-79108243D01*
X123595942Y-79108242D01*
X123595932Y-79108241D01*
X123300007Y-79088845D01*
X123299993Y-79088845D01*
X123004067Y-79108241D01*
X123004055Y-79108242D01*
X123004051Y-79108243D01*
X123004043Y-79108244D01*
X123004040Y-79108245D01*
X122713170Y-79166102D01*
X122713156Y-79166105D01*
X122432317Y-79261438D01*
X122166332Y-79392607D01*
X122166317Y-79392616D01*
X121919720Y-79557387D01*
X121696737Y-79752937D01*
X121501187Y-79975920D01*
X121336416Y-80222517D01*
X121336407Y-80222532D01*
X121205238Y-80488517D01*
X121109905Y-80769356D01*
X121109902Y-80769370D01*
X121052045Y-81060240D01*
X121052041Y-81060267D01*
X121032645Y-81356192D01*
X121032645Y-81356207D01*
X117856000Y-81356207D01*
X117856000Y-38732500D01*
X117875685Y-38665461D01*
X117928489Y-38619706D01*
X117980000Y-38608500D01*
X162558260Y-38608500D01*
X162561736Y-38608598D01*
G37*
G04 #@! TD.AperFunction*
M02*
