G04 #@! TF.GenerationSoftware,KiCad,Pcbnew,7.0.5*
G04 #@! TF.CreationDate,2024-02-23T12:49:32-06:00*
G04 #@! TF.ProjectId,CoilFiringBoard_Hardware,436f696c-4669-4726-996e-67426f617264,rev?*
G04 #@! TF.SameCoordinates,Original*
G04 #@! TF.FileFunction,Legend,Top*
G04 #@! TF.FilePolarity,Positive*
%FSLAX46Y46*%
G04 Gerber Fmt 4.6, Leading zero omitted, Abs format (unit mm)*
G04 Created by KiCad (PCBNEW 7.0.5) date 2024-02-23 12:49:32*
%MOMM*%
%LPD*%
G01*
G04 APERTURE LIST*
G04 Aperture macros list*
%AMRoundRect*
0 Rectangle with rounded corners*
0 $1 Rounding radius*
0 $2 $3 $4 $5 $6 $7 $8 $9 X,Y pos of 4 corners*
0 Add a 4 corners polygon primitive as box body*
4,1,4,$2,$3,$4,$5,$6,$7,$8,$9,$2,$3,0*
0 Add four circle primitives for the rounded corners*
1,1,$1+$1,$2,$3*
1,1,$1+$1,$4,$5*
1,1,$1+$1,$6,$7*
1,1,$1+$1,$8,$9*
0 Add four rect primitives between the rounded corners*
20,1,$1+$1,$2,$3,$4,$5,0*
20,1,$1+$1,$4,$5,$6,$7,0*
20,1,$1+$1,$6,$7,$8,$9,0*
20,1,$1+$1,$8,$9,$2,$3,0*%
G04 Aperture macros list end*
%ADD10C,0.150000*%
%ADD11C,0.100000*%
%ADD12C,0.120000*%
%ADD13C,1.270000*%
%ADD14C,0.381000*%
%ADD15C,3.000000*%
%ADD16R,25.400000X38.100000*%
%ADD17C,2.000000*%
%ADD18R,3.200000X3.200000*%
%ADD19O,3.200000X3.200000*%
%ADD20C,3.450000*%
%ADD21C,1.524000*%
%ADD22C,3.800000*%
%ADD23RoundRect,0.237500X0.237500X-0.250000X0.237500X0.250000X-0.237500X0.250000X-0.237500X-0.250000X0*%
%ADD24R,2.500000X4.500000*%
%ADD25O,2.500000X4.500000*%
%ADD26RoundRect,0.237500X0.250000X0.237500X-0.250000X0.237500X-0.250000X-0.237500X0.250000X-0.237500X0*%
G04 APERTURE END LIST*
D10*
X116840000Y-47244000D02*
X106172000Y-47244000D01*
X116840000Y-113284000D02*
X116840000Y-47244000D01*
X106172000Y-47244000D02*
X106172000Y-113284000D01*
X106172000Y-113284000D02*
X116840000Y-113284000D01*
X88900000Y-85344000D02*
X88900000Y-114808000D01*
X104648000Y-85344000D02*
X88900000Y-85344000D01*
X117856000Y-83312000D02*
X125857000Y-83312000D01*
X104648000Y-38608000D02*
X104648000Y-85344000D01*
X117856000Y-114808000D02*
X117856000Y-38608000D01*
X130221023Y-112665220D02*
X130281500Y-112725696D01*
X130281500Y-112725696D02*
X130341976Y-112907125D01*
X130341976Y-112907125D02*
X130341976Y-113028077D01*
X130341976Y-113028077D02*
X130281500Y-113209506D01*
X130281500Y-113209506D02*
X130160547Y-113330458D01*
X130160547Y-113330458D02*
X130039595Y-113390935D01*
X130039595Y-113390935D02*
X129797690Y-113451411D01*
X129797690Y-113451411D02*
X129616261Y-113451411D01*
X129616261Y-113451411D02*
X129374357Y-113390935D01*
X129374357Y-113390935D02*
X129253404Y-113330458D01*
X129253404Y-113330458D02*
X129132452Y-113209506D01*
X129132452Y-113209506D02*
X129071976Y-113028077D01*
X129071976Y-113028077D02*
X129071976Y-112907125D01*
X129071976Y-112907125D02*
X129132452Y-112725696D01*
X129132452Y-112725696D02*
X129192928Y-112665220D01*
X130341976Y-111939506D02*
X130281500Y-112060458D01*
X130281500Y-112060458D02*
X130221023Y-112120935D01*
X130221023Y-112120935D02*
X130100071Y-112181411D01*
X130100071Y-112181411D02*
X129737214Y-112181411D01*
X129737214Y-112181411D02*
X129616261Y-112120935D01*
X129616261Y-112120935D02*
X129555785Y-112060458D01*
X129555785Y-112060458D02*
X129495309Y-111939506D01*
X129495309Y-111939506D02*
X129495309Y-111758077D01*
X129495309Y-111758077D02*
X129555785Y-111637125D01*
X129555785Y-111637125D02*
X129616261Y-111576649D01*
X129616261Y-111576649D02*
X129737214Y-111516173D01*
X129737214Y-111516173D02*
X130100071Y-111516173D01*
X130100071Y-111516173D02*
X130221023Y-111576649D01*
X130221023Y-111576649D02*
X130281500Y-111637125D01*
X130281500Y-111637125D02*
X130341976Y-111758077D01*
X130341976Y-111758077D02*
X130341976Y-111939506D01*
X130341976Y-110971887D02*
X129495309Y-110971887D01*
X129071976Y-110971887D02*
X129132452Y-111032363D01*
X129132452Y-111032363D02*
X129192928Y-110971887D01*
X129192928Y-110971887D02*
X129132452Y-110911410D01*
X129132452Y-110911410D02*
X129071976Y-110971887D01*
X129071976Y-110971887D02*
X129192928Y-110971887D01*
X130341976Y-110185696D02*
X130281500Y-110306648D01*
X130281500Y-110306648D02*
X130160547Y-110367125D01*
X130160547Y-110367125D02*
X129071976Y-110367125D01*
X129676738Y-108310934D02*
X129737214Y-108129506D01*
X129737214Y-108129506D02*
X129797690Y-108069029D01*
X129797690Y-108069029D02*
X129918642Y-108008553D01*
X129918642Y-108008553D02*
X130100071Y-108008553D01*
X130100071Y-108008553D02*
X130221023Y-108069029D01*
X130221023Y-108069029D02*
X130281500Y-108129506D01*
X130281500Y-108129506D02*
X130341976Y-108250458D01*
X130341976Y-108250458D02*
X130341976Y-108734268D01*
X130341976Y-108734268D02*
X129071976Y-108734268D01*
X129071976Y-108734268D02*
X129071976Y-108310934D01*
X129071976Y-108310934D02*
X129132452Y-108189982D01*
X129132452Y-108189982D02*
X129192928Y-108129506D01*
X129192928Y-108129506D02*
X129313880Y-108069029D01*
X129313880Y-108069029D02*
X129434833Y-108069029D01*
X129434833Y-108069029D02*
X129555785Y-108129506D01*
X129555785Y-108129506D02*
X129616261Y-108189982D01*
X129616261Y-108189982D02*
X129676738Y-108310934D01*
X129676738Y-108310934D02*
X129676738Y-108734268D01*
X130341976Y-107282839D02*
X130281500Y-107403791D01*
X130281500Y-107403791D02*
X130221023Y-107464268D01*
X130221023Y-107464268D02*
X130100071Y-107524744D01*
X130100071Y-107524744D02*
X129737214Y-107524744D01*
X129737214Y-107524744D02*
X129616261Y-107464268D01*
X129616261Y-107464268D02*
X129555785Y-107403791D01*
X129555785Y-107403791D02*
X129495309Y-107282839D01*
X129495309Y-107282839D02*
X129495309Y-107101410D01*
X129495309Y-107101410D02*
X129555785Y-106980458D01*
X129555785Y-106980458D02*
X129616261Y-106919982D01*
X129616261Y-106919982D02*
X129737214Y-106859506D01*
X129737214Y-106859506D02*
X130100071Y-106859506D01*
X130100071Y-106859506D02*
X130221023Y-106919982D01*
X130221023Y-106919982D02*
X130281500Y-106980458D01*
X130281500Y-106980458D02*
X130341976Y-107101410D01*
X130341976Y-107101410D02*
X130341976Y-107282839D01*
X130341976Y-105770934D02*
X129676738Y-105770934D01*
X129676738Y-105770934D02*
X129555785Y-105831410D01*
X129555785Y-105831410D02*
X129495309Y-105952362D01*
X129495309Y-105952362D02*
X129495309Y-106194267D01*
X129495309Y-106194267D02*
X129555785Y-106315220D01*
X130281500Y-105770934D02*
X130341976Y-105891886D01*
X130341976Y-105891886D02*
X130341976Y-106194267D01*
X130341976Y-106194267D02*
X130281500Y-106315220D01*
X130281500Y-106315220D02*
X130160547Y-106375696D01*
X130160547Y-106375696D02*
X130039595Y-106375696D01*
X130039595Y-106375696D02*
X129918642Y-106315220D01*
X129918642Y-106315220D02*
X129858166Y-106194267D01*
X129858166Y-106194267D02*
X129858166Y-105891886D01*
X129858166Y-105891886D02*
X129797690Y-105770934D01*
X130341976Y-105166172D02*
X129495309Y-105166172D01*
X129737214Y-105166172D02*
X129616261Y-105105695D01*
X129616261Y-105105695D02*
X129555785Y-105045219D01*
X129555785Y-105045219D02*
X129495309Y-104924267D01*
X129495309Y-104924267D02*
X129495309Y-104803314D01*
X130341976Y-103835696D02*
X129071976Y-103835696D01*
X130281500Y-103835696D02*
X130341976Y-103956648D01*
X130341976Y-103956648D02*
X130341976Y-104198553D01*
X130341976Y-104198553D02*
X130281500Y-104319505D01*
X130281500Y-104319505D02*
X130221023Y-104379982D01*
X130221023Y-104379982D02*
X130100071Y-104440458D01*
X130100071Y-104440458D02*
X129737214Y-104440458D01*
X129737214Y-104440458D02*
X129616261Y-104379982D01*
X129616261Y-104379982D02*
X129555785Y-104319505D01*
X129555785Y-104319505D02*
X129495309Y-104198553D01*
X129495309Y-104198553D02*
X129495309Y-103956648D01*
X129495309Y-103956648D02*
X129555785Y-103835696D01*
X130281500Y-103170457D02*
X130341976Y-103170457D01*
X130341976Y-103170457D02*
X130462928Y-103230934D01*
X130462928Y-103230934D02*
X130523404Y-103291410D01*
X130341976Y-100932838D02*
X129737214Y-101356172D01*
X130341976Y-101658553D02*
X129071976Y-101658553D01*
X129071976Y-101658553D02*
X129071976Y-101174743D01*
X129071976Y-101174743D02*
X129132452Y-101053791D01*
X129132452Y-101053791D02*
X129192928Y-100993314D01*
X129192928Y-100993314D02*
X129313880Y-100932838D01*
X129313880Y-100932838D02*
X129495309Y-100932838D01*
X129495309Y-100932838D02*
X129616261Y-100993314D01*
X129616261Y-100993314D02*
X129676738Y-101053791D01*
X129676738Y-101053791D02*
X129737214Y-101174743D01*
X129737214Y-101174743D02*
X129737214Y-101658553D01*
X130281500Y-99904743D02*
X130341976Y-100025695D01*
X130341976Y-100025695D02*
X130341976Y-100267600D01*
X130341976Y-100267600D02*
X130281500Y-100388553D01*
X130281500Y-100388553D02*
X130160547Y-100449029D01*
X130160547Y-100449029D02*
X129676738Y-100449029D01*
X129676738Y-100449029D02*
X129555785Y-100388553D01*
X129555785Y-100388553D02*
X129495309Y-100267600D01*
X129495309Y-100267600D02*
X129495309Y-100025695D01*
X129495309Y-100025695D02*
X129555785Y-99904743D01*
X129555785Y-99904743D02*
X129676738Y-99844267D01*
X129676738Y-99844267D02*
X129797690Y-99844267D01*
X129797690Y-99844267D02*
X129918642Y-100449029D01*
X129495309Y-99420934D02*
X130341976Y-99118553D01*
X130341976Y-99118553D02*
X129495309Y-98816172D01*
X130341976Y-97667124D02*
X130341976Y-98392839D01*
X130341976Y-98029982D02*
X129071976Y-98029982D01*
X129071976Y-98029982D02*
X129253404Y-98150934D01*
X129253404Y-98150934D02*
X129374357Y-98271886D01*
X129374357Y-98271886D02*
X129434833Y-98392839D01*
X132326200Y-113451411D02*
X132386676Y-113269982D01*
X132386676Y-113269982D02*
X132386676Y-112967601D01*
X132386676Y-112967601D02*
X132326200Y-112846649D01*
X132326200Y-112846649D02*
X132265723Y-112786173D01*
X132265723Y-112786173D02*
X132144771Y-112725696D01*
X132144771Y-112725696D02*
X132023819Y-112725696D01*
X132023819Y-112725696D02*
X131902866Y-112786173D01*
X131902866Y-112786173D02*
X131842390Y-112846649D01*
X131842390Y-112846649D02*
X131781914Y-112967601D01*
X131781914Y-112967601D02*
X131721438Y-113209506D01*
X131721438Y-113209506D02*
X131660961Y-113330458D01*
X131660961Y-113330458D02*
X131600485Y-113390935D01*
X131600485Y-113390935D02*
X131479533Y-113451411D01*
X131479533Y-113451411D02*
X131358580Y-113451411D01*
X131358580Y-113451411D02*
X131237628Y-113390935D01*
X131237628Y-113390935D02*
X131177152Y-113330458D01*
X131177152Y-113330458D02*
X131116676Y-113209506D01*
X131116676Y-113209506D02*
X131116676Y-112907125D01*
X131116676Y-112907125D02*
X131177152Y-112725696D01*
X132326200Y-111697601D02*
X132386676Y-111818553D01*
X132386676Y-111818553D02*
X132386676Y-112060458D01*
X132386676Y-112060458D02*
X132326200Y-112181411D01*
X132326200Y-112181411D02*
X132205247Y-112241887D01*
X132205247Y-112241887D02*
X131721438Y-112241887D01*
X131721438Y-112241887D02*
X131600485Y-112181411D01*
X131600485Y-112181411D02*
X131540009Y-112060458D01*
X131540009Y-112060458D02*
X131540009Y-111818553D01*
X131540009Y-111818553D02*
X131600485Y-111697601D01*
X131600485Y-111697601D02*
X131721438Y-111637125D01*
X131721438Y-111637125D02*
X131842390Y-111637125D01*
X131842390Y-111637125D02*
X131963342Y-112241887D01*
X131540009Y-111092840D02*
X132386676Y-111092840D01*
X131660961Y-111092840D02*
X131600485Y-111032363D01*
X131600485Y-111032363D02*
X131540009Y-110911411D01*
X131540009Y-110911411D02*
X131540009Y-110729982D01*
X131540009Y-110729982D02*
X131600485Y-110609030D01*
X131600485Y-110609030D02*
X131721438Y-110548554D01*
X131721438Y-110548554D02*
X132386676Y-110548554D01*
X132386676Y-109943792D02*
X131540009Y-109943792D01*
X131116676Y-109943792D02*
X131177152Y-110004268D01*
X131177152Y-110004268D02*
X131237628Y-109943792D01*
X131237628Y-109943792D02*
X131177152Y-109883315D01*
X131177152Y-109883315D02*
X131116676Y-109943792D01*
X131116676Y-109943792D02*
X131237628Y-109943792D01*
X132386676Y-109157601D02*
X132326200Y-109278553D01*
X132326200Y-109278553D02*
X132265723Y-109339030D01*
X132265723Y-109339030D02*
X132144771Y-109399506D01*
X132144771Y-109399506D02*
X131781914Y-109399506D01*
X131781914Y-109399506D02*
X131660961Y-109339030D01*
X131660961Y-109339030D02*
X131600485Y-109278553D01*
X131600485Y-109278553D02*
X131540009Y-109157601D01*
X131540009Y-109157601D02*
X131540009Y-108976172D01*
X131540009Y-108976172D02*
X131600485Y-108855220D01*
X131600485Y-108855220D02*
X131660961Y-108794744D01*
X131660961Y-108794744D02*
X131781914Y-108734268D01*
X131781914Y-108734268D02*
X132144771Y-108734268D01*
X132144771Y-108734268D02*
X132265723Y-108794744D01*
X132265723Y-108794744D02*
X132326200Y-108855220D01*
X132326200Y-108855220D02*
X132386676Y-108976172D01*
X132386676Y-108976172D02*
X132386676Y-109157601D01*
X132386676Y-108189982D02*
X131540009Y-108189982D01*
X131781914Y-108189982D02*
X131660961Y-108129505D01*
X131660961Y-108129505D02*
X131600485Y-108069029D01*
X131600485Y-108069029D02*
X131540009Y-107948077D01*
X131540009Y-107948077D02*
X131540009Y-107827124D01*
X132386676Y-106436173D02*
X131116676Y-106436173D01*
X131116676Y-106436173D02*
X131116676Y-106133792D01*
X131116676Y-106133792D02*
X131177152Y-105952363D01*
X131177152Y-105952363D02*
X131298104Y-105831411D01*
X131298104Y-105831411D02*
X131419057Y-105770934D01*
X131419057Y-105770934D02*
X131660961Y-105710458D01*
X131660961Y-105710458D02*
X131842390Y-105710458D01*
X131842390Y-105710458D02*
X132084295Y-105770934D01*
X132084295Y-105770934D02*
X132205247Y-105831411D01*
X132205247Y-105831411D02*
X132326200Y-105952363D01*
X132326200Y-105952363D02*
X132386676Y-106133792D01*
X132386676Y-106133792D02*
X132386676Y-106436173D01*
X132326200Y-104682363D02*
X132386676Y-104803315D01*
X132386676Y-104803315D02*
X132386676Y-105045220D01*
X132386676Y-105045220D02*
X132326200Y-105166173D01*
X132326200Y-105166173D02*
X132205247Y-105226649D01*
X132205247Y-105226649D02*
X131721438Y-105226649D01*
X131721438Y-105226649D02*
X131600485Y-105166173D01*
X131600485Y-105166173D02*
X131540009Y-105045220D01*
X131540009Y-105045220D02*
X131540009Y-104803315D01*
X131540009Y-104803315D02*
X131600485Y-104682363D01*
X131600485Y-104682363D02*
X131721438Y-104621887D01*
X131721438Y-104621887D02*
X131842390Y-104621887D01*
X131842390Y-104621887D02*
X131963342Y-105226649D01*
X132326200Y-104138078D02*
X132386676Y-104017125D01*
X132386676Y-104017125D02*
X132386676Y-103775221D01*
X132386676Y-103775221D02*
X132326200Y-103654268D01*
X132326200Y-103654268D02*
X132205247Y-103593792D01*
X132205247Y-103593792D02*
X132144771Y-103593792D01*
X132144771Y-103593792D02*
X132023819Y-103654268D01*
X132023819Y-103654268D02*
X131963342Y-103775221D01*
X131963342Y-103775221D02*
X131963342Y-103956649D01*
X131963342Y-103956649D02*
X131902866Y-104077602D01*
X131902866Y-104077602D02*
X131781914Y-104138078D01*
X131781914Y-104138078D02*
X131721438Y-104138078D01*
X131721438Y-104138078D02*
X131600485Y-104077602D01*
X131600485Y-104077602D02*
X131540009Y-103956649D01*
X131540009Y-103956649D02*
X131540009Y-103775221D01*
X131540009Y-103775221D02*
X131600485Y-103654268D01*
X132386676Y-103049507D02*
X131540009Y-103049507D01*
X131116676Y-103049507D02*
X131177152Y-103109983D01*
X131177152Y-103109983D02*
X131237628Y-103049507D01*
X131237628Y-103049507D02*
X131177152Y-102989030D01*
X131177152Y-102989030D02*
X131116676Y-103049507D01*
X131116676Y-103049507D02*
X131237628Y-103049507D01*
X131540009Y-101900459D02*
X132568104Y-101900459D01*
X132568104Y-101900459D02*
X132689057Y-101960935D01*
X132689057Y-101960935D02*
X132749533Y-102021411D01*
X132749533Y-102021411D02*
X132810009Y-102142364D01*
X132810009Y-102142364D02*
X132810009Y-102323792D01*
X132810009Y-102323792D02*
X132749533Y-102444745D01*
X132326200Y-101900459D02*
X132386676Y-102021411D01*
X132386676Y-102021411D02*
X132386676Y-102263316D01*
X132386676Y-102263316D02*
X132326200Y-102384268D01*
X132326200Y-102384268D02*
X132265723Y-102444745D01*
X132265723Y-102444745D02*
X132144771Y-102505221D01*
X132144771Y-102505221D02*
X131781914Y-102505221D01*
X131781914Y-102505221D02*
X131660961Y-102444745D01*
X131660961Y-102444745D02*
X131600485Y-102384268D01*
X131600485Y-102384268D02*
X131540009Y-102263316D01*
X131540009Y-102263316D02*
X131540009Y-102021411D01*
X131540009Y-102021411D02*
X131600485Y-101900459D01*
X131540009Y-101295697D02*
X132386676Y-101295697D01*
X131660961Y-101295697D02*
X131600485Y-101235220D01*
X131600485Y-101235220D02*
X131540009Y-101114268D01*
X131540009Y-101114268D02*
X131540009Y-100932839D01*
X131540009Y-100932839D02*
X131600485Y-100811887D01*
X131600485Y-100811887D02*
X131721438Y-100751411D01*
X131721438Y-100751411D02*
X132386676Y-100751411D01*
X131237628Y-99239506D02*
X131177152Y-99179030D01*
X131177152Y-99179030D02*
X131116676Y-99058077D01*
X131116676Y-99058077D02*
X131116676Y-98755696D01*
X131116676Y-98755696D02*
X131177152Y-98634744D01*
X131177152Y-98634744D02*
X131237628Y-98574268D01*
X131237628Y-98574268D02*
X131358580Y-98513791D01*
X131358580Y-98513791D02*
X131479533Y-98513791D01*
X131479533Y-98513791D02*
X131660961Y-98574268D01*
X131660961Y-98574268D02*
X132386676Y-99299982D01*
X132386676Y-99299982D02*
X132386676Y-98513791D01*
X131116676Y-97727601D02*
X131116676Y-97606648D01*
X131116676Y-97606648D02*
X131177152Y-97485696D01*
X131177152Y-97485696D02*
X131237628Y-97425220D01*
X131237628Y-97425220D02*
X131358580Y-97364744D01*
X131358580Y-97364744D02*
X131600485Y-97304267D01*
X131600485Y-97304267D02*
X131902866Y-97304267D01*
X131902866Y-97304267D02*
X132144771Y-97364744D01*
X132144771Y-97364744D02*
X132265723Y-97425220D01*
X132265723Y-97425220D02*
X132326200Y-97485696D01*
X132326200Y-97485696D02*
X132386676Y-97606648D01*
X132386676Y-97606648D02*
X132386676Y-97727601D01*
X132386676Y-97727601D02*
X132326200Y-97848553D01*
X132326200Y-97848553D02*
X132265723Y-97909029D01*
X132265723Y-97909029D02*
X132144771Y-97969506D01*
X132144771Y-97969506D02*
X131902866Y-98029982D01*
X131902866Y-98029982D02*
X131600485Y-98029982D01*
X131600485Y-98029982D02*
X131358580Y-97969506D01*
X131358580Y-97969506D02*
X131237628Y-97909029D01*
X131237628Y-97909029D02*
X131177152Y-97848553D01*
X131177152Y-97848553D02*
X131116676Y-97727601D01*
X131237628Y-96820458D02*
X131177152Y-96759982D01*
X131177152Y-96759982D02*
X131116676Y-96639029D01*
X131116676Y-96639029D02*
X131116676Y-96336648D01*
X131116676Y-96336648D02*
X131177152Y-96215696D01*
X131177152Y-96215696D02*
X131237628Y-96155220D01*
X131237628Y-96155220D02*
X131358580Y-96094743D01*
X131358580Y-96094743D02*
X131479533Y-96094743D01*
X131479533Y-96094743D02*
X131660961Y-96155220D01*
X131660961Y-96155220D02*
X132386676Y-96880934D01*
X132386676Y-96880934D02*
X132386676Y-96094743D01*
X131540009Y-95006172D02*
X132386676Y-95006172D01*
X131056200Y-95308553D02*
X131963342Y-95610934D01*
X131963342Y-95610934D02*
X131963342Y-94824743D01*
X134431376Y-113390935D02*
X133161376Y-113390935D01*
X134431376Y-112665220D02*
X133705661Y-113209506D01*
X133161376Y-112665220D02*
X133887090Y-113390935D01*
X134431376Y-112120935D02*
X133584709Y-112120935D01*
X133161376Y-112120935D02*
X133221852Y-112181411D01*
X133221852Y-112181411D02*
X133282328Y-112120935D01*
X133282328Y-112120935D02*
X133221852Y-112060458D01*
X133221852Y-112060458D02*
X133161376Y-112120935D01*
X133161376Y-112120935D02*
X133282328Y-112120935D01*
X133584709Y-111516173D02*
X134431376Y-111516173D01*
X133705661Y-111516173D02*
X133645185Y-111455696D01*
X133645185Y-111455696D02*
X133584709Y-111334744D01*
X133584709Y-111334744D02*
X133584709Y-111153315D01*
X133584709Y-111153315D02*
X133645185Y-111032363D01*
X133645185Y-111032363D02*
X133766138Y-110971887D01*
X133766138Y-110971887D02*
X134431376Y-110971887D01*
X134370900Y-109883315D02*
X134431376Y-110004267D01*
X134431376Y-110004267D02*
X134431376Y-110246172D01*
X134431376Y-110246172D02*
X134370900Y-110367125D01*
X134370900Y-110367125D02*
X134249947Y-110427601D01*
X134249947Y-110427601D02*
X133766138Y-110427601D01*
X133766138Y-110427601D02*
X133645185Y-110367125D01*
X133645185Y-110367125D02*
X133584709Y-110246172D01*
X133584709Y-110246172D02*
X133584709Y-110004267D01*
X133584709Y-110004267D02*
X133645185Y-109883315D01*
X133645185Y-109883315D02*
X133766138Y-109822839D01*
X133766138Y-109822839D02*
X133887090Y-109822839D01*
X133887090Y-109822839D02*
X134008042Y-110427601D01*
X133584709Y-109459982D02*
X133584709Y-108976173D01*
X133161376Y-109278554D02*
X134249947Y-109278554D01*
X134249947Y-109278554D02*
X134370900Y-109218077D01*
X134370900Y-109218077D02*
X134431376Y-109097125D01*
X134431376Y-109097125D02*
X134431376Y-108976173D01*
X134431376Y-108552840D02*
X133584709Y-108552840D01*
X133161376Y-108552840D02*
X133221852Y-108613316D01*
X133221852Y-108613316D02*
X133282328Y-108552840D01*
X133282328Y-108552840D02*
X133221852Y-108492363D01*
X133221852Y-108492363D02*
X133161376Y-108552840D01*
X133161376Y-108552840D02*
X133282328Y-108552840D01*
X134370900Y-107403792D02*
X134431376Y-107524744D01*
X134431376Y-107524744D02*
X134431376Y-107766649D01*
X134431376Y-107766649D02*
X134370900Y-107887601D01*
X134370900Y-107887601D02*
X134310423Y-107948078D01*
X134310423Y-107948078D02*
X134189471Y-108008554D01*
X134189471Y-108008554D02*
X133826614Y-108008554D01*
X133826614Y-108008554D02*
X133705661Y-107948078D01*
X133705661Y-107948078D02*
X133645185Y-107887601D01*
X133645185Y-107887601D02*
X133584709Y-107766649D01*
X133584709Y-107766649D02*
X133584709Y-107524744D01*
X133584709Y-107524744D02*
X133645185Y-107403792D01*
X134068519Y-105952364D02*
X134068519Y-105347602D01*
X134431376Y-106073316D02*
X133161376Y-105649983D01*
X133161376Y-105649983D02*
X134431376Y-105226649D01*
X133584709Y-104803317D02*
X134431376Y-104803317D01*
X133705661Y-104803317D02*
X133645185Y-104742840D01*
X133645185Y-104742840D02*
X133584709Y-104621888D01*
X133584709Y-104621888D02*
X133584709Y-104440459D01*
X133584709Y-104440459D02*
X133645185Y-104319507D01*
X133645185Y-104319507D02*
X133766138Y-104259031D01*
X133766138Y-104259031D02*
X134431376Y-104259031D01*
X133584709Y-103835697D02*
X133584709Y-103351888D01*
X133161376Y-103654269D02*
X134249947Y-103654269D01*
X134249947Y-103654269D02*
X134370900Y-103593792D01*
X134370900Y-103593792D02*
X134431376Y-103472840D01*
X134431376Y-103472840D02*
X134431376Y-103351888D01*
X134370900Y-102444745D02*
X134431376Y-102565697D01*
X134431376Y-102565697D02*
X134431376Y-102807602D01*
X134431376Y-102807602D02*
X134370900Y-102928555D01*
X134370900Y-102928555D02*
X134249947Y-102989031D01*
X134249947Y-102989031D02*
X133766138Y-102989031D01*
X133766138Y-102989031D02*
X133645185Y-102928555D01*
X133645185Y-102928555D02*
X133584709Y-102807602D01*
X133584709Y-102807602D02*
X133584709Y-102565697D01*
X133584709Y-102565697D02*
X133645185Y-102444745D01*
X133645185Y-102444745D02*
X133766138Y-102384269D01*
X133766138Y-102384269D02*
X133887090Y-102384269D01*
X133887090Y-102384269D02*
X134008042Y-102989031D01*
X133584709Y-101839984D02*
X134431376Y-101839984D01*
X133705661Y-101839984D02*
X133645185Y-101779507D01*
X133645185Y-101779507D02*
X133584709Y-101658555D01*
X133584709Y-101658555D02*
X133584709Y-101477126D01*
X133584709Y-101477126D02*
X133645185Y-101356174D01*
X133645185Y-101356174D02*
X133766138Y-101295698D01*
X133766138Y-101295698D02*
X134431376Y-101295698D01*
X133584709Y-100690936D02*
X134431376Y-100690936D01*
X133705661Y-100690936D02*
X133645185Y-100630459D01*
X133645185Y-100630459D02*
X133584709Y-100509507D01*
X133584709Y-100509507D02*
X133584709Y-100328078D01*
X133584709Y-100328078D02*
X133645185Y-100207126D01*
X133645185Y-100207126D02*
X133766138Y-100146650D01*
X133766138Y-100146650D02*
X134431376Y-100146650D01*
X134431376Y-98997602D02*
X133766138Y-98997602D01*
X133766138Y-98997602D02*
X133645185Y-99058078D01*
X133645185Y-99058078D02*
X133584709Y-99179030D01*
X133584709Y-99179030D02*
X133584709Y-99420935D01*
X133584709Y-99420935D02*
X133645185Y-99541888D01*
X134370900Y-98997602D02*
X134431376Y-99118554D01*
X134431376Y-99118554D02*
X134431376Y-99420935D01*
X134431376Y-99420935D02*
X134370900Y-99541888D01*
X134370900Y-99541888D02*
X134249947Y-99602364D01*
X134249947Y-99602364D02*
X134128995Y-99602364D01*
X134128995Y-99602364D02*
X134008042Y-99541888D01*
X134008042Y-99541888D02*
X133947566Y-99420935D01*
X133947566Y-99420935D02*
X133947566Y-99118554D01*
X133947566Y-99118554D02*
X133887090Y-98997602D01*
X136476076Y-113390935D02*
X135206076Y-113390935D01*
X135206076Y-113390935D02*
X136113219Y-112967601D01*
X136113219Y-112967601D02*
X135206076Y-112544268D01*
X135206076Y-112544268D02*
X136476076Y-112544268D01*
X136476076Y-111939506D02*
X135629409Y-111939506D01*
X135206076Y-111939506D02*
X135266552Y-111999982D01*
X135266552Y-111999982D02*
X135327028Y-111939506D01*
X135327028Y-111939506D02*
X135266552Y-111879029D01*
X135266552Y-111879029D02*
X135206076Y-111939506D01*
X135206076Y-111939506D02*
X135327028Y-111939506D01*
X136415600Y-111395220D02*
X136476076Y-111274267D01*
X136476076Y-111274267D02*
X136476076Y-111032363D01*
X136476076Y-111032363D02*
X136415600Y-110911410D01*
X136415600Y-110911410D02*
X136294647Y-110850934D01*
X136294647Y-110850934D02*
X136234171Y-110850934D01*
X136234171Y-110850934D02*
X136113219Y-110911410D01*
X136113219Y-110911410D02*
X136052742Y-111032363D01*
X136052742Y-111032363D02*
X136052742Y-111213791D01*
X136052742Y-111213791D02*
X135992266Y-111334744D01*
X135992266Y-111334744D02*
X135871314Y-111395220D01*
X135871314Y-111395220D02*
X135810838Y-111395220D01*
X135810838Y-111395220D02*
X135689885Y-111334744D01*
X135689885Y-111334744D02*
X135629409Y-111213791D01*
X135629409Y-111213791D02*
X135629409Y-111032363D01*
X135629409Y-111032363D02*
X135689885Y-110911410D01*
X136415600Y-110367125D02*
X136476076Y-110246172D01*
X136476076Y-110246172D02*
X136476076Y-110004268D01*
X136476076Y-110004268D02*
X136415600Y-109883315D01*
X136415600Y-109883315D02*
X136294647Y-109822839D01*
X136294647Y-109822839D02*
X136234171Y-109822839D01*
X136234171Y-109822839D02*
X136113219Y-109883315D01*
X136113219Y-109883315D02*
X136052742Y-110004268D01*
X136052742Y-110004268D02*
X136052742Y-110185696D01*
X136052742Y-110185696D02*
X135992266Y-110306649D01*
X135992266Y-110306649D02*
X135871314Y-110367125D01*
X135871314Y-110367125D02*
X135810838Y-110367125D01*
X135810838Y-110367125D02*
X135689885Y-110306649D01*
X135689885Y-110306649D02*
X135629409Y-110185696D01*
X135629409Y-110185696D02*
X135629409Y-110004268D01*
X135629409Y-110004268D02*
X135689885Y-109883315D01*
X136476076Y-109097125D02*
X136415600Y-109218077D01*
X136415600Y-109218077D02*
X136355123Y-109278554D01*
X136355123Y-109278554D02*
X136234171Y-109339030D01*
X136234171Y-109339030D02*
X135871314Y-109339030D01*
X135871314Y-109339030D02*
X135750361Y-109278554D01*
X135750361Y-109278554D02*
X135689885Y-109218077D01*
X135689885Y-109218077D02*
X135629409Y-109097125D01*
X135629409Y-109097125D02*
X135629409Y-108915696D01*
X135629409Y-108915696D02*
X135689885Y-108794744D01*
X135689885Y-108794744D02*
X135750361Y-108734268D01*
X135750361Y-108734268D02*
X135871314Y-108673792D01*
X135871314Y-108673792D02*
X136234171Y-108673792D01*
X136234171Y-108673792D02*
X136355123Y-108734268D01*
X136355123Y-108734268D02*
X136415600Y-108794744D01*
X136415600Y-108794744D02*
X136476076Y-108915696D01*
X136476076Y-108915696D02*
X136476076Y-109097125D01*
X135629409Y-107585220D02*
X136476076Y-107585220D01*
X135629409Y-108129506D02*
X136294647Y-108129506D01*
X136294647Y-108129506D02*
X136415600Y-108069029D01*
X136415600Y-108069029D02*
X136476076Y-107948077D01*
X136476076Y-107948077D02*
X136476076Y-107766648D01*
X136476076Y-107766648D02*
X136415600Y-107645696D01*
X136415600Y-107645696D02*
X136355123Y-107585220D01*
X136476076Y-106980458D02*
X135629409Y-106980458D01*
X135871314Y-106980458D02*
X135750361Y-106919981D01*
X135750361Y-106919981D02*
X135689885Y-106859505D01*
X135689885Y-106859505D02*
X135629409Y-106738553D01*
X135629409Y-106738553D02*
X135629409Y-106617600D01*
X136476076Y-106194268D02*
X135629409Y-106194268D01*
X135206076Y-106194268D02*
X135266552Y-106254744D01*
X135266552Y-106254744D02*
X135327028Y-106194268D01*
X135327028Y-106194268D02*
X135266552Y-106133791D01*
X135266552Y-106133791D02*
X135206076Y-106194268D01*
X135206076Y-106194268D02*
X135327028Y-106194268D01*
X136415600Y-104682363D02*
X136476076Y-104500934D01*
X136476076Y-104500934D02*
X136476076Y-104198553D01*
X136476076Y-104198553D02*
X136415600Y-104077601D01*
X136415600Y-104077601D02*
X136355123Y-104017125D01*
X136355123Y-104017125D02*
X136234171Y-103956648D01*
X136234171Y-103956648D02*
X136113219Y-103956648D01*
X136113219Y-103956648D02*
X135992266Y-104017125D01*
X135992266Y-104017125D02*
X135931790Y-104077601D01*
X135931790Y-104077601D02*
X135871314Y-104198553D01*
X135871314Y-104198553D02*
X135810838Y-104440458D01*
X135810838Y-104440458D02*
X135750361Y-104561410D01*
X135750361Y-104561410D02*
X135689885Y-104621887D01*
X135689885Y-104621887D02*
X135568933Y-104682363D01*
X135568933Y-104682363D02*
X135447980Y-104682363D01*
X135447980Y-104682363D02*
X135327028Y-104621887D01*
X135327028Y-104621887D02*
X135266552Y-104561410D01*
X135266552Y-104561410D02*
X135206076Y-104440458D01*
X135206076Y-104440458D02*
X135206076Y-104138077D01*
X135206076Y-104138077D02*
X135266552Y-103956648D01*
X136476076Y-102384267D02*
X136476076Y-102444744D01*
X136476076Y-102444744D02*
X136415600Y-102565696D01*
X136415600Y-102565696D02*
X136234171Y-102747124D01*
X136234171Y-102747124D02*
X135871314Y-103049505D01*
X135871314Y-103049505D02*
X135689885Y-103170458D01*
X135689885Y-103170458D02*
X135508457Y-103230934D01*
X135508457Y-103230934D02*
X135387504Y-103230934D01*
X135387504Y-103230934D02*
X135266552Y-103170458D01*
X135266552Y-103170458D02*
X135206076Y-103049505D01*
X135206076Y-103049505D02*
X135206076Y-102989029D01*
X135206076Y-102989029D02*
X135266552Y-102868077D01*
X135266552Y-102868077D02*
X135387504Y-102807601D01*
X135387504Y-102807601D02*
X135447980Y-102807601D01*
X135447980Y-102807601D02*
X135568933Y-102868077D01*
X135568933Y-102868077D02*
X135629409Y-102928553D01*
X135629409Y-102928553D02*
X135871314Y-103291410D01*
X135871314Y-103291410D02*
X135931790Y-103351886D01*
X135931790Y-103351886D02*
X136052742Y-103412363D01*
X136052742Y-103412363D02*
X136234171Y-103412363D01*
X136234171Y-103412363D02*
X136355123Y-103351886D01*
X136355123Y-103351886D02*
X136415600Y-103291410D01*
X136415600Y-103291410D02*
X136476076Y-103170458D01*
X136476076Y-103170458D02*
X136476076Y-102989029D01*
X136476076Y-102989029D02*
X136415600Y-102868077D01*
X136415600Y-102868077D02*
X136355123Y-102807601D01*
X136355123Y-102807601D02*
X136113219Y-102626172D01*
X136113219Y-102626172D02*
X135931790Y-102565696D01*
X135931790Y-102565696D02*
X135810838Y-102565696D01*
X135206076Y-102021410D02*
X135206076Y-101295696D01*
X136476076Y-101658553D02*
X135206076Y-101658553D01*
X135810838Y-99904744D02*
X135810838Y-99481410D01*
X136476076Y-99299982D02*
X136476076Y-99904744D01*
X136476076Y-99904744D02*
X135206076Y-99904744D01*
X135206076Y-99904744D02*
X135206076Y-99299982D01*
X136355123Y-98029981D02*
X136415600Y-98090457D01*
X136415600Y-98090457D02*
X136476076Y-98271886D01*
X136476076Y-98271886D02*
X136476076Y-98392838D01*
X136476076Y-98392838D02*
X136415600Y-98574267D01*
X136415600Y-98574267D02*
X136294647Y-98695219D01*
X136294647Y-98695219D02*
X136173695Y-98755696D01*
X136173695Y-98755696D02*
X135931790Y-98816172D01*
X135931790Y-98816172D02*
X135750361Y-98816172D01*
X135750361Y-98816172D02*
X135508457Y-98755696D01*
X135508457Y-98755696D02*
X135387504Y-98695219D01*
X135387504Y-98695219D02*
X135266552Y-98574267D01*
X135266552Y-98574267D02*
X135206076Y-98392838D01*
X135206076Y-98392838D02*
X135206076Y-98271886D01*
X135206076Y-98271886D02*
X135266552Y-98090457D01*
X135266552Y-98090457D02*
X135327028Y-98029981D01*
X135810838Y-97485696D02*
X135810838Y-97062362D01*
X136476076Y-96880934D02*
X136476076Y-97485696D01*
X136476076Y-97485696D02*
X135206076Y-97485696D01*
X135206076Y-97485696D02*
X135206076Y-96880934D01*
X136476076Y-95369029D02*
X135206076Y-95369029D01*
X135206076Y-95369029D02*
X135206076Y-95066648D01*
X135206076Y-95066648D02*
X135266552Y-94885219D01*
X135266552Y-94885219D02*
X135387504Y-94764267D01*
X135387504Y-94764267D02*
X135508457Y-94703790D01*
X135508457Y-94703790D02*
X135750361Y-94643314D01*
X135750361Y-94643314D02*
X135931790Y-94643314D01*
X135931790Y-94643314D02*
X136173695Y-94703790D01*
X136173695Y-94703790D02*
X136294647Y-94764267D01*
X136294647Y-94764267D02*
X136415600Y-94885219D01*
X136415600Y-94885219D02*
X136476076Y-95066648D01*
X136476076Y-95066648D02*
X136476076Y-95369029D01*
X136415600Y-93615219D02*
X136476076Y-93736171D01*
X136476076Y-93736171D02*
X136476076Y-93978076D01*
X136476076Y-93978076D02*
X136415600Y-94099029D01*
X136415600Y-94099029D02*
X136294647Y-94159505D01*
X136294647Y-94159505D02*
X135810838Y-94159505D01*
X135810838Y-94159505D02*
X135689885Y-94099029D01*
X135689885Y-94099029D02*
X135629409Y-93978076D01*
X135629409Y-93978076D02*
X135629409Y-93736171D01*
X135629409Y-93736171D02*
X135689885Y-93615219D01*
X135689885Y-93615219D02*
X135810838Y-93554743D01*
X135810838Y-93554743D02*
X135931790Y-93554743D01*
X135931790Y-93554743D02*
X136052742Y-94159505D01*
X135629409Y-93010458D02*
X136899409Y-93010458D01*
X135689885Y-93010458D02*
X135629409Y-92889505D01*
X135629409Y-92889505D02*
X135629409Y-92647600D01*
X135629409Y-92647600D02*
X135689885Y-92526648D01*
X135689885Y-92526648D02*
X135750361Y-92466172D01*
X135750361Y-92466172D02*
X135871314Y-92405696D01*
X135871314Y-92405696D02*
X136234171Y-92405696D01*
X136234171Y-92405696D02*
X136355123Y-92466172D01*
X136355123Y-92466172D02*
X136415600Y-92526648D01*
X136415600Y-92526648D02*
X136476076Y-92647600D01*
X136476076Y-92647600D02*
X136476076Y-92889505D01*
X136476076Y-92889505D02*
X136415600Y-93010458D01*
X135629409Y-92042838D02*
X135629409Y-91559029D01*
X135206076Y-91861410D02*
X136294647Y-91861410D01*
X136294647Y-91861410D02*
X136415600Y-91800933D01*
X136415600Y-91800933D02*
X136476076Y-91679981D01*
X136476076Y-91679981D02*
X136476076Y-91559029D01*
X136355123Y-91135696D02*
X136415600Y-91075219D01*
X136415600Y-91075219D02*
X136476076Y-91135696D01*
X136476076Y-91135696D02*
X136415600Y-91196172D01*
X136415600Y-91196172D02*
X136355123Y-91135696D01*
X136355123Y-91135696D02*
X136476076Y-91135696D01*
X137311252Y-112725696D02*
X137250776Y-112846649D01*
X137250776Y-112846649D02*
X137250776Y-113028077D01*
X137250776Y-113028077D02*
X137311252Y-113209506D01*
X137311252Y-113209506D02*
X137432204Y-113330458D01*
X137432204Y-113330458D02*
X137553157Y-113390935D01*
X137553157Y-113390935D02*
X137795061Y-113451411D01*
X137795061Y-113451411D02*
X137976490Y-113451411D01*
X137976490Y-113451411D02*
X138218395Y-113390935D01*
X138218395Y-113390935D02*
X138339347Y-113330458D01*
X138339347Y-113330458D02*
X138460300Y-113209506D01*
X138460300Y-113209506D02*
X138520776Y-113028077D01*
X138520776Y-113028077D02*
X138520776Y-112907125D01*
X138520776Y-112907125D02*
X138460300Y-112725696D01*
X138460300Y-112725696D02*
X138399823Y-112665220D01*
X138399823Y-112665220D02*
X137976490Y-112665220D01*
X137976490Y-112665220D02*
X137976490Y-112907125D01*
X138520776Y-112120935D02*
X137674109Y-112120935D01*
X137916014Y-112120935D02*
X137795061Y-112060458D01*
X137795061Y-112060458D02*
X137734585Y-111999982D01*
X137734585Y-111999982D02*
X137674109Y-111879030D01*
X137674109Y-111879030D02*
X137674109Y-111758077D01*
X138520776Y-110790459D02*
X137855538Y-110790459D01*
X137855538Y-110790459D02*
X137734585Y-110850935D01*
X137734585Y-110850935D02*
X137674109Y-110971887D01*
X137674109Y-110971887D02*
X137674109Y-111213792D01*
X137674109Y-111213792D02*
X137734585Y-111334745D01*
X138460300Y-110790459D02*
X138520776Y-110911411D01*
X138520776Y-110911411D02*
X138520776Y-111213792D01*
X138520776Y-111213792D02*
X138460300Y-111334745D01*
X138460300Y-111334745D02*
X138339347Y-111395221D01*
X138339347Y-111395221D02*
X138218395Y-111395221D01*
X138218395Y-111395221D02*
X138097442Y-111334745D01*
X138097442Y-111334745D02*
X138036966Y-111213792D01*
X138036966Y-111213792D02*
X138036966Y-110911411D01*
X138036966Y-110911411D02*
X137976490Y-110790459D01*
X137674109Y-110185697D02*
X138520776Y-110185697D01*
X137795061Y-110185697D02*
X137734585Y-110125220D01*
X137734585Y-110125220D02*
X137674109Y-110004268D01*
X137674109Y-110004268D02*
X137674109Y-109822839D01*
X137674109Y-109822839D02*
X137734585Y-109701887D01*
X137734585Y-109701887D02*
X137855538Y-109641411D01*
X137855538Y-109641411D02*
X138520776Y-109641411D01*
X137674109Y-109218077D02*
X137674109Y-108734268D01*
X137250776Y-109036649D02*
X138339347Y-109036649D01*
X138339347Y-109036649D02*
X138460300Y-108976172D01*
X138460300Y-108976172D02*
X138520776Y-108855220D01*
X138520776Y-108855220D02*
X138520776Y-108734268D01*
X137855538Y-106919982D02*
X137916014Y-106738554D01*
X137916014Y-106738554D02*
X137976490Y-106678077D01*
X137976490Y-106678077D02*
X138097442Y-106617601D01*
X138097442Y-106617601D02*
X138278871Y-106617601D01*
X138278871Y-106617601D02*
X138399823Y-106678077D01*
X138399823Y-106678077D02*
X138460300Y-106738554D01*
X138460300Y-106738554D02*
X138520776Y-106859506D01*
X138520776Y-106859506D02*
X138520776Y-107343316D01*
X138520776Y-107343316D02*
X137250776Y-107343316D01*
X137250776Y-107343316D02*
X137250776Y-106919982D01*
X137250776Y-106919982D02*
X137311252Y-106799030D01*
X137311252Y-106799030D02*
X137371728Y-106738554D01*
X137371728Y-106738554D02*
X137492680Y-106678077D01*
X137492680Y-106678077D02*
X137613633Y-106678077D01*
X137613633Y-106678077D02*
X137734585Y-106738554D01*
X137734585Y-106738554D02*
X137795061Y-106799030D01*
X137795061Y-106799030D02*
X137855538Y-106919982D01*
X137855538Y-106919982D02*
X137855538Y-107343316D01*
X138520776Y-106073316D02*
X137674109Y-106073316D01*
X137916014Y-106073316D02*
X137795061Y-106012839D01*
X137795061Y-106012839D02*
X137734585Y-105952363D01*
X137734585Y-105952363D02*
X137674109Y-105831411D01*
X137674109Y-105831411D02*
X137674109Y-105710458D01*
X138520776Y-105287126D02*
X137674109Y-105287126D01*
X137250776Y-105287126D02*
X137311252Y-105347602D01*
X137311252Y-105347602D02*
X137371728Y-105287126D01*
X137371728Y-105287126D02*
X137311252Y-105226649D01*
X137311252Y-105226649D02*
X137250776Y-105287126D01*
X137250776Y-105287126D02*
X137371728Y-105287126D01*
X137674109Y-104682364D02*
X138520776Y-104682364D01*
X137795061Y-104682364D02*
X137734585Y-104621887D01*
X137734585Y-104621887D02*
X137674109Y-104500935D01*
X137674109Y-104500935D02*
X137674109Y-104319506D01*
X137674109Y-104319506D02*
X137734585Y-104198554D01*
X137734585Y-104198554D02*
X137855538Y-104138078D01*
X137855538Y-104138078D02*
X138520776Y-104138078D01*
X138520776Y-103533316D02*
X137250776Y-103533316D01*
X138036966Y-103412363D02*
X138520776Y-103049506D01*
X137674109Y-103049506D02*
X138157919Y-103533316D01*
X138460300Y-102021411D02*
X138520776Y-102142363D01*
X138520776Y-102142363D02*
X138520776Y-102384268D01*
X138520776Y-102384268D02*
X138460300Y-102505221D01*
X138460300Y-102505221D02*
X138339347Y-102565697D01*
X138339347Y-102565697D02*
X137855538Y-102565697D01*
X137855538Y-102565697D02*
X137734585Y-102505221D01*
X137734585Y-102505221D02*
X137674109Y-102384268D01*
X137674109Y-102384268D02*
X137674109Y-102142363D01*
X137674109Y-102142363D02*
X137734585Y-102021411D01*
X137734585Y-102021411D02*
X137855538Y-101960935D01*
X137855538Y-101960935D02*
X137976490Y-101960935D01*
X137976490Y-101960935D02*
X138097442Y-102565697D01*
X138520776Y-101416650D02*
X137674109Y-101416650D01*
X137916014Y-101416650D02*
X137795061Y-101356173D01*
X137795061Y-101356173D02*
X137734585Y-101295697D01*
X137734585Y-101295697D02*
X137674109Y-101174745D01*
X137674109Y-101174745D02*
X137674109Y-101053792D01*
D11*
X113538095Y-81313619D02*
X113538095Y-80313619D01*
X113538095Y-80789809D02*
X114109523Y-80789809D01*
X114109523Y-81313619D02*
X114109523Y-80313619D01*
X114538095Y-80408857D02*
X114585714Y-80361238D01*
X114585714Y-80361238D02*
X114680952Y-80313619D01*
X114680952Y-80313619D02*
X114919047Y-80313619D01*
X114919047Y-80313619D02*
X115014285Y-80361238D01*
X115014285Y-80361238D02*
X115061904Y-80408857D01*
X115061904Y-80408857D02*
X115109523Y-80504095D01*
X115109523Y-80504095D02*
X115109523Y-80599333D01*
X115109523Y-80599333D02*
X115061904Y-80742190D01*
X115061904Y-80742190D02*
X114490476Y-81313619D01*
X114490476Y-81313619D02*
X115109523Y-81313619D01*
D10*
X97581580Y-92796666D02*
X97629200Y-92844285D01*
X97629200Y-92844285D02*
X97676819Y-92987142D01*
X97676819Y-92987142D02*
X97676819Y-93082380D01*
X97676819Y-93082380D02*
X97629200Y-93225237D01*
X97629200Y-93225237D02*
X97533961Y-93320475D01*
X97533961Y-93320475D02*
X97438723Y-93368094D01*
X97438723Y-93368094D02*
X97248247Y-93415713D01*
X97248247Y-93415713D02*
X97105390Y-93415713D01*
X97105390Y-93415713D02*
X96914914Y-93368094D01*
X96914914Y-93368094D02*
X96819676Y-93320475D01*
X96819676Y-93320475D02*
X96724438Y-93225237D01*
X96724438Y-93225237D02*
X96676819Y-93082380D01*
X96676819Y-93082380D02*
X96676819Y-92987142D01*
X96676819Y-92987142D02*
X96724438Y-92844285D01*
X96724438Y-92844285D02*
X96772057Y-92796666D01*
X97676819Y-91844285D02*
X97676819Y-92415713D01*
X97676819Y-92129999D02*
X96676819Y-92129999D01*
X96676819Y-92129999D02*
X96819676Y-92225237D01*
X96819676Y-92225237D02*
X96914914Y-92320475D01*
X96914914Y-92320475D02*
X96962533Y-92415713D01*
X97813905Y-50746819D02*
X97813905Y-49746819D01*
X97813905Y-49746819D02*
X98052000Y-49746819D01*
X98052000Y-49746819D02*
X98194857Y-49794438D01*
X98194857Y-49794438D02*
X98290095Y-49889676D01*
X98290095Y-49889676D02*
X98337714Y-49984914D01*
X98337714Y-49984914D02*
X98385333Y-50175390D01*
X98385333Y-50175390D02*
X98385333Y-50318247D01*
X98385333Y-50318247D02*
X98337714Y-50508723D01*
X98337714Y-50508723D02*
X98290095Y-50603961D01*
X98290095Y-50603961D02*
X98194857Y-50699200D01*
X98194857Y-50699200D02*
X98052000Y-50746819D01*
X98052000Y-50746819D02*
X97813905Y-50746819D01*
X99337714Y-50746819D02*
X98766286Y-50746819D01*
X99052000Y-50746819D02*
X99052000Y-49746819D01*
X99052000Y-49746819D02*
X98956762Y-49889676D01*
X98956762Y-49889676D02*
X98861524Y-49984914D01*
X98861524Y-49984914D02*
X98766286Y-50032533D01*
X101338095Y-48108819D02*
X101338095Y-47108819D01*
X101909523Y-48108819D02*
X101480952Y-47537390D01*
X101909523Y-47108819D02*
X101338095Y-47680247D01*
X97813905Y-63954819D02*
X97813905Y-62954819D01*
X97813905Y-62954819D02*
X98052000Y-62954819D01*
X98052000Y-62954819D02*
X98194857Y-63002438D01*
X98194857Y-63002438D02*
X98290095Y-63097676D01*
X98290095Y-63097676D02*
X98337714Y-63192914D01*
X98337714Y-63192914D02*
X98385333Y-63383390D01*
X98385333Y-63383390D02*
X98385333Y-63526247D01*
X98385333Y-63526247D02*
X98337714Y-63716723D01*
X98337714Y-63716723D02*
X98290095Y-63811961D01*
X98290095Y-63811961D02*
X98194857Y-63907200D01*
X98194857Y-63907200D02*
X98052000Y-63954819D01*
X98052000Y-63954819D02*
X97813905Y-63954819D01*
X98718667Y-62954819D02*
X99337714Y-62954819D01*
X99337714Y-62954819D02*
X99004381Y-63335771D01*
X99004381Y-63335771D02*
X99147238Y-63335771D01*
X99147238Y-63335771D02*
X99242476Y-63383390D01*
X99242476Y-63383390D02*
X99290095Y-63431009D01*
X99290095Y-63431009D02*
X99337714Y-63526247D01*
X99337714Y-63526247D02*
X99337714Y-63764342D01*
X99337714Y-63764342D02*
X99290095Y-63859580D01*
X99290095Y-63859580D02*
X99242476Y-63907200D01*
X99242476Y-63907200D02*
X99147238Y-63954819D01*
X99147238Y-63954819D02*
X98861524Y-63954819D01*
X98861524Y-63954819D02*
X98766286Y-63907200D01*
X98766286Y-63907200D02*
X98718667Y-63859580D01*
X101338095Y-61354819D02*
X101338095Y-60354819D01*
X101909523Y-61354819D02*
X101480952Y-60783390D01*
X101909523Y-60354819D02*
X101338095Y-60926247D01*
X97488476Y-43650819D02*
X97821809Y-44650819D01*
X97821809Y-44650819D02*
X98155142Y-43650819D01*
X98393238Y-43650819D02*
X99012285Y-43650819D01*
X99012285Y-43650819D02*
X98678952Y-44031771D01*
X98678952Y-44031771D02*
X98821809Y-44031771D01*
X98821809Y-44031771D02*
X98917047Y-44079390D01*
X98917047Y-44079390D02*
X98964666Y-44127009D01*
X98964666Y-44127009D02*
X99012285Y-44222247D01*
X99012285Y-44222247D02*
X99012285Y-44460342D01*
X99012285Y-44460342D02*
X98964666Y-44555580D01*
X98964666Y-44555580D02*
X98917047Y-44603200D01*
X98917047Y-44603200D02*
X98821809Y-44650819D01*
X98821809Y-44650819D02*
X98536095Y-44650819D01*
X98536095Y-44650819D02*
X98440857Y-44603200D01*
X98440857Y-44603200D02*
X98393238Y-44555580D01*
X97813905Y-57350819D02*
X97813905Y-56350819D01*
X97813905Y-56350819D02*
X98052000Y-56350819D01*
X98052000Y-56350819D02*
X98194857Y-56398438D01*
X98194857Y-56398438D02*
X98290095Y-56493676D01*
X98290095Y-56493676D02*
X98337714Y-56588914D01*
X98337714Y-56588914D02*
X98385333Y-56779390D01*
X98385333Y-56779390D02*
X98385333Y-56922247D01*
X98385333Y-56922247D02*
X98337714Y-57112723D01*
X98337714Y-57112723D02*
X98290095Y-57207961D01*
X98290095Y-57207961D02*
X98194857Y-57303200D01*
X98194857Y-57303200D02*
X98052000Y-57350819D01*
X98052000Y-57350819D02*
X97813905Y-57350819D01*
X98766286Y-56446057D02*
X98813905Y-56398438D01*
X98813905Y-56398438D02*
X98909143Y-56350819D01*
X98909143Y-56350819D02*
X99147238Y-56350819D01*
X99147238Y-56350819D02*
X99242476Y-56398438D01*
X99242476Y-56398438D02*
X99290095Y-56446057D01*
X99290095Y-56446057D02*
X99337714Y-56541295D01*
X99337714Y-56541295D02*
X99337714Y-56636533D01*
X99337714Y-56636533D02*
X99290095Y-56779390D01*
X99290095Y-56779390D02*
X98718667Y-57350819D01*
X98718667Y-57350819D02*
X99337714Y-57350819D01*
X101338095Y-54750819D02*
X101338095Y-53750819D01*
X101909523Y-54750819D02*
X101480952Y-54179390D01*
X101909523Y-53750819D02*
X101338095Y-54322247D01*
X99608819Y-100750666D02*
X99132628Y-101083999D01*
X99608819Y-101322094D02*
X98608819Y-101322094D01*
X98608819Y-101322094D02*
X98608819Y-100941142D01*
X98608819Y-100941142D02*
X98656438Y-100845904D01*
X98656438Y-100845904D02*
X98704057Y-100798285D01*
X98704057Y-100798285D02*
X98799295Y-100750666D01*
X98799295Y-100750666D02*
X98942152Y-100750666D01*
X98942152Y-100750666D02*
X99037390Y-100798285D01*
X99037390Y-100798285D02*
X99085009Y-100845904D01*
X99085009Y-100845904D02*
X99132628Y-100941142D01*
X99132628Y-100941142D02*
X99132628Y-101322094D01*
X99608819Y-99798285D02*
X99608819Y-100369713D01*
X99608819Y-100083999D02*
X98608819Y-100083999D01*
X98608819Y-100083999D02*
X98751676Y-100179237D01*
X98751676Y-100179237D02*
X98846914Y-100274475D01*
X98846914Y-100274475D02*
X98894533Y-100369713D01*
X125888761Y-104690057D02*
X125793523Y-104642438D01*
X125793523Y-104642438D02*
X125698285Y-104547200D01*
X125698285Y-104547200D02*
X125555428Y-104404342D01*
X125555428Y-104404342D02*
X125460190Y-104356723D01*
X125460190Y-104356723D02*
X125364952Y-104356723D01*
X125412571Y-104594819D02*
X125317333Y-104547200D01*
X125317333Y-104547200D02*
X125222095Y-104451961D01*
X125222095Y-104451961D02*
X125174476Y-104261485D01*
X125174476Y-104261485D02*
X125174476Y-103928152D01*
X125174476Y-103928152D02*
X125222095Y-103737676D01*
X125222095Y-103737676D02*
X125317333Y-103642438D01*
X125317333Y-103642438D02*
X125412571Y-103594819D01*
X125412571Y-103594819D02*
X125603047Y-103594819D01*
X125603047Y-103594819D02*
X125698285Y-103642438D01*
X125698285Y-103642438D02*
X125793523Y-103737676D01*
X125793523Y-103737676D02*
X125841142Y-103928152D01*
X125841142Y-103928152D02*
X125841142Y-104261485D01*
X125841142Y-104261485D02*
X125793523Y-104451961D01*
X125793523Y-104451961D02*
X125698285Y-104547200D01*
X125698285Y-104547200D02*
X125603047Y-104594819D01*
X125603047Y-104594819D02*
X125412571Y-104594819D01*
X126793523Y-104594819D02*
X126222095Y-104594819D01*
X126507809Y-104594819D02*
X126507809Y-103594819D01*
X126507809Y-103594819D02*
X126412571Y-103737676D01*
X126412571Y-103737676D02*
X126317333Y-103832914D01*
X126317333Y-103832914D02*
X126222095Y-103880533D01*
X110188476Y-110198819D02*
X110521809Y-111198819D01*
X110521809Y-111198819D02*
X110855142Y-110198819D01*
X111617047Y-110532152D02*
X111617047Y-111198819D01*
X111378952Y-110151200D02*
X111140857Y-110865485D01*
X111140857Y-110865485D02*
X111759904Y-110865485D01*
X99147333Y-89514819D02*
X98814000Y-89038628D01*
X98575905Y-89514819D02*
X98575905Y-88514819D01*
X98575905Y-88514819D02*
X98956857Y-88514819D01*
X98956857Y-88514819D02*
X99052095Y-88562438D01*
X99052095Y-88562438D02*
X99099714Y-88610057D01*
X99099714Y-88610057D02*
X99147333Y-88705295D01*
X99147333Y-88705295D02*
X99147333Y-88848152D01*
X99147333Y-88848152D02*
X99099714Y-88943390D01*
X99099714Y-88943390D02*
X99052095Y-88991009D01*
X99052095Y-88991009D02*
X98956857Y-89038628D01*
X98956857Y-89038628D02*
X98575905Y-89038628D01*
X99528286Y-88610057D02*
X99575905Y-88562438D01*
X99575905Y-88562438D02*
X99671143Y-88514819D01*
X99671143Y-88514819D02*
X99909238Y-88514819D01*
X99909238Y-88514819D02*
X100004476Y-88562438D01*
X100004476Y-88562438D02*
X100052095Y-88610057D01*
X100052095Y-88610057D02*
X100099714Y-88705295D01*
X100099714Y-88705295D02*
X100099714Y-88800533D01*
X100099714Y-88800533D02*
X100052095Y-88943390D01*
X100052095Y-88943390D02*
X99480667Y-89514819D01*
X99480667Y-89514819D02*
X100099714Y-89514819D01*
D11*
X113538095Y-99017419D02*
X113538095Y-98017419D01*
X113538095Y-98493609D02*
X114109523Y-98493609D01*
X114109523Y-99017419D02*
X114109523Y-98017419D01*
X115109523Y-99017419D02*
X114538095Y-99017419D01*
X114823809Y-99017419D02*
X114823809Y-98017419D01*
X114823809Y-98017419D02*
X114728571Y-98160276D01*
X114728571Y-98160276D02*
X114633333Y-98255514D01*
X114633333Y-98255514D02*
X114538095Y-98303133D01*
D10*
X97813905Y-70558819D02*
X97813905Y-69558819D01*
X97813905Y-69558819D02*
X98052000Y-69558819D01*
X98052000Y-69558819D02*
X98194857Y-69606438D01*
X98194857Y-69606438D02*
X98290095Y-69701676D01*
X98290095Y-69701676D02*
X98337714Y-69796914D01*
X98337714Y-69796914D02*
X98385333Y-69987390D01*
X98385333Y-69987390D02*
X98385333Y-70130247D01*
X98385333Y-70130247D02*
X98337714Y-70320723D01*
X98337714Y-70320723D02*
X98290095Y-70415961D01*
X98290095Y-70415961D02*
X98194857Y-70511200D01*
X98194857Y-70511200D02*
X98052000Y-70558819D01*
X98052000Y-70558819D02*
X97813905Y-70558819D01*
X99242476Y-69892152D02*
X99242476Y-70558819D01*
X99004381Y-69511200D02*
X98766286Y-70225485D01*
X98766286Y-70225485D02*
X99385333Y-70225485D01*
X101338095Y-67958819D02*
X101338095Y-66958819D01*
X101909523Y-67958819D02*
X101480952Y-67387390D01*
X101909523Y-66958819D02*
X101338095Y-67530247D01*
X125888761Y-86485057D02*
X125793523Y-86437438D01*
X125793523Y-86437438D02*
X125698285Y-86342200D01*
X125698285Y-86342200D02*
X125555428Y-86199342D01*
X125555428Y-86199342D02*
X125460190Y-86151723D01*
X125460190Y-86151723D02*
X125364952Y-86151723D01*
X125412571Y-86389819D02*
X125317333Y-86342200D01*
X125317333Y-86342200D02*
X125222095Y-86246961D01*
X125222095Y-86246961D02*
X125174476Y-86056485D01*
X125174476Y-86056485D02*
X125174476Y-85723152D01*
X125174476Y-85723152D02*
X125222095Y-85532676D01*
X125222095Y-85532676D02*
X125317333Y-85437438D01*
X125317333Y-85437438D02*
X125412571Y-85389819D01*
X125412571Y-85389819D02*
X125603047Y-85389819D01*
X125603047Y-85389819D02*
X125698285Y-85437438D01*
X125698285Y-85437438D02*
X125793523Y-85532676D01*
X125793523Y-85532676D02*
X125841142Y-85723152D01*
X125841142Y-85723152D02*
X125841142Y-86056485D01*
X125841142Y-86056485D02*
X125793523Y-86246961D01*
X125793523Y-86246961D02*
X125698285Y-86342200D01*
X125698285Y-86342200D02*
X125603047Y-86389819D01*
X125603047Y-86389819D02*
X125412571Y-86389819D01*
X126222095Y-85485057D02*
X126269714Y-85437438D01*
X126269714Y-85437438D02*
X126364952Y-85389819D01*
X126364952Y-85389819D02*
X126603047Y-85389819D01*
X126603047Y-85389819D02*
X126698285Y-85437438D01*
X126698285Y-85437438D02*
X126745904Y-85485057D01*
X126745904Y-85485057D02*
X126793523Y-85580295D01*
X126793523Y-85580295D02*
X126793523Y-85675533D01*
X126793523Y-85675533D02*
X126745904Y-85818390D01*
X126745904Y-85818390D02*
X126174476Y-86389819D01*
X126174476Y-86389819D02*
X126793523Y-86389819D01*
D11*
X102700000Y-74456200D02*
X114300000Y-74456200D01*
X102700000Y-90456200D02*
X102700000Y-74456200D01*
X104200000Y-83356200D02*
X104200000Y-90456200D01*
X104200000Y-90456200D02*
X102700000Y-90456200D01*
X114300000Y-83356200D02*
X104200000Y-83356200D01*
X114300000Y-83356200D02*
X124400000Y-83356200D01*
X124400000Y-83356200D02*
X124400000Y-90456200D01*
X124400000Y-90456200D02*
X125900000Y-90456200D01*
X125900000Y-74456200D02*
X114300000Y-74456200D01*
X125900000Y-90456200D02*
X125900000Y-74456200D01*
D12*
X96092000Y-86010000D02*
X90852000Y-86010000D01*
X96092000Y-86010000D02*
X96092000Y-99250000D01*
X90852000Y-86010000D02*
X90852000Y-99250000D01*
X96092000Y-99250000D02*
X90852000Y-99250000D01*
X103080000Y-47534000D02*
X112820000Y-47534000D01*
X103080000Y-48414000D02*
X103080000Y-47534000D01*
X103080000Y-52094000D02*
X103080000Y-52974000D01*
X103080000Y-52974000D02*
X112820000Y-52974000D01*
X104505000Y-47534000D02*
X104505000Y-52974000D01*
X104625000Y-47534000D02*
X104625000Y-52974000D01*
X104745000Y-47534000D02*
X104745000Y-52974000D01*
X112820000Y-47534000D02*
X112820000Y-48414000D01*
X112820000Y-52974000D02*
X112820000Y-52094000D01*
D10*
X100074000Y-114804000D02*
X91184000Y-114804000D01*
X100074000Y-102866000D02*
X100074000Y-114804000D01*
X100074000Y-102866000D02*
X91184000Y-102866000D01*
X98169000Y-100326000D02*
X98169000Y-102866000D01*
X93089000Y-102866000D02*
X93089000Y-100326000D01*
X93089000Y-100326000D02*
X98169000Y-100326000D01*
X91184000Y-102866000D02*
X91184000Y-114804000D01*
D12*
X103080000Y-60780000D02*
X112820000Y-60780000D01*
X103080000Y-61660000D02*
X103080000Y-60780000D01*
X103080000Y-65340000D02*
X103080000Y-66220000D01*
X103080000Y-66220000D02*
X112820000Y-66220000D01*
X104505000Y-60780000D02*
X104505000Y-66220000D01*
X104625000Y-60780000D02*
X104625000Y-66220000D01*
X104745000Y-60780000D02*
X104745000Y-66220000D01*
X112820000Y-60780000D02*
X112820000Y-61660000D01*
X112820000Y-66220000D02*
X112820000Y-65340000D01*
D13*
X119888000Y-51435000D02*
X128778000Y-40005000D01*
D14*
X127381000Y-46736000D02*
X128778000Y-46736000D01*
X127381000Y-49530000D02*
X128143000Y-48895000D01*
X127508000Y-48514000D02*
X127381000Y-49530000D01*
X127635000Y-49022000D02*
X127508000Y-48514000D01*
X127635000Y-49149000D02*
X129413000Y-46355000D01*
X127762000Y-46609000D02*
X129032000Y-46609000D01*
X128143000Y-46355000D02*
X129921000Y-44323000D01*
X128143000Y-48895000D02*
X127635000Y-49149000D01*
D13*
X128778000Y-40005000D02*
X137668000Y-51435000D01*
D14*
X128778000Y-46736000D02*
X127635000Y-49022000D01*
X128905000Y-44450000D02*
X127381000Y-46736000D01*
X129159000Y-44704000D02*
X127762000Y-46609000D01*
X129159000Y-44831000D02*
X129032000Y-44323000D01*
X129413000Y-46355000D02*
X128143000Y-46355000D01*
X129921000Y-44323000D02*
X129159000Y-44831000D01*
D13*
X137668000Y-51435000D02*
X119888000Y-51435000D01*
D12*
X103080000Y-54176000D02*
X112820000Y-54176000D01*
X103080000Y-55056000D02*
X103080000Y-54176000D01*
X103080000Y-58736000D02*
X103080000Y-59616000D01*
X103080000Y-59616000D02*
X112820000Y-59616000D01*
X104505000Y-54176000D02*
X104505000Y-59616000D01*
X104625000Y-54176000D02*
X104625000Y-59616000D01*
X104745000Y-54176000D02*
X104745000Y-59616000D01*
X112820000Y-54176000D02*
X112820000Y-55056000D01*
X112820000Y-59616000D02*
X112820000Y-58736000D01*
X100061500Y-100838724D02*
X100061500Y-100329276D01*
X101106500Y-100838724D02*
X101106500Y-100329276D01*
X104180000Y-101611000D02*
X104180000Y-106852000D01*
X104180000Y-101611000D02*
X107450000Y-101611000D01*
X104180000Y-103852000D02*
X107450000Y-103852000D01*
X104180000Y-106852000D02*
X124420000Y-106852000D01*
X110250000Y-101611000D02*
X112901000Y-101611000D01*
X110250000Y-103852000D02*
X112901000Y-103852000D01*
X112650000Y-101611000D02*
X112650000Y-103852000D01*
X115700000Y-101611000D02*
X118350000Y-101611000D01*
X115700000Y-103852000D02*
X118350000Y-103852000D01*
X115950000Y-101611000D02*
X115950000Y-103852000D01*
X121150000Y-101611000D02*
X124420000Y-101611000D01*
X121150000Y-103852000D02*
X124420000Y-103852000D01*
X124420000Y-101611000D02*
X124420000Y-106852000D01*
G36*
X134998135Y-79219989D02*
G01*
X134966305Y-79251819D01*
X134934476Y-79219989D01*
X134966305Y-79188160D01*
X134998135Y-79219989D01*
G37*
G36*
X138372070Y-76864601D02*
G01*
X138340240Y-76896431D01*
X138308411Y-76864601D01*
X138340240Y-76832771D01*
X138372070Y-76864601D01*
G37*
G36*
X137671819Y-75082145D02*
G01*
X137639990Y-75113974D01*
X137608160Y-75082145D01*
X137639990Y-75050315D01*
X137671819Y-75082145D01*
G37*
G36*
X135571067Y-72535779D02*
G01*
X135539238Y-72567609D01*
X135507408Y-72535779D01*
X135539238Y-72503949D01*
X135571067Y-72535779D01*
G37*
G36*
X136653273Y-67888661D02*
G01*
X136621443Y-67920491D01*
X136589614Y-67888661D01*
X136621443Y-67856832D01*
X136653273Y-67888661D01*
G37*
G36*
X137608160Y-67634025D02*
G01*
X137576330Y-67665854D01*
X137544501Y-67634025D01*
X137576330Y-67602195D01*
X137608160Y-67634025D01*
G37*
G36*
X137544501Y-67506706D02*
G01*
X137512671Y-67538536D01*
X137480842Y-67506706D01*
X137512671Y-67474877D01*
X137544501Y-67506706D01*
G37*
G36*
X135410862Y-72738869D02*
G01*
X135384748Y-72814707D01*
X135333973Y-72858372D01*
X135296240Y-72797792D01*
X135291854Y-72694424D01*
X135314812Y-72664098D01*
X135387192Y-72663178D01*
X135410862Y-72738869D01*
G37*
G36*
X135060139Y-79337198D02*
G01*
X135061794Y-79343551D01*
X135017186Y-79397901D01*
X134998135Y-79410967D01*
X134939474Y-79405920D01*
X134934476Y-79382894D01*
X134980687Y-79318069D01*
X134998135Y-79315478D01*
X135060139Y-79337198D01*
G37*
G36*
X136709141Y-67654011D02*
G01*
X136716932Y-67701441D01*
X136686070Y-67767332D01*
X136653273Y-67761343D01*
X136592042Y-67679957D01*
X136589614Y-67662097D01*
X136638169Y-67603910D01*
X136653273Y-67602195D01*
X136709141Y-67654011D01*
G37*
G36*
X137671493Y-75329263D02*
G01*
X137671819Y-75354244D01*
X137698837Y-75480494D01*
X137735478Y-75527759D01*
X137792008Y-75593736D01*
X137767029Y-75698522D01*
X137729630Y-75767820D01*
X137652645Y-75850912D01*
X137596179Y-75821006D01*
X137570083Y-75691973D01*
X137575141Y-75550324D01*
X137600677Y-75377064D01*
X137631348Y-75270096D01*
X137658003Y-75247976D01*
X137671493Y-75329263D01*
G37*
G36*
X137979226Y-65616779D02*
G01*
X137989010Y-65738713D01*
X137964494Y-65881261D01*
X137909940Y-65994779D01*
X137892484Y-66012494D01*
X137762759Y-66062470D01*
X137549102Y-66088368D01*
X137292958Y-66088246D01*
X137035776Y-66060163D01*
X137003398Y-66054155D01*
X136812421Y-66016658D01*
X136834056Y-66396966D01*
X136852161Y-66614151D01*
X136886623Y-66742773D01*
X136954495Y-66821584D01*
X137044334Y-66874824D01*
X137273806Y-67025786D01*
X137485962Y-67243986D01*
X137544501Y-67317384D01*
X137602226Y-67396111D01*
X137587779Y-67403990D01*
X137485244Y-67341881D01*
X137454508Y-67322251D01*
X137175708Y-67149362D01*
X136979093Y-67042263D01*
X136844118Y-66991540D01*
X136750236Y-66987778D01*
X136733881Y-66992054D01*
X136674555Y-66998726D01*
X136640097Y-66955647D01*
X136623988Y-66838569D01*
X136619710Y-66623246D01*
X136619699Y-66567343D01*
X136612010Y-66290147D01*
X136591358Y-66021526D01*
X136564986Y-65835654D01*
X136537064Y-65665443D01*
X136549707Y-65585899D01*
X136608837Y-65565174D01*
X136615305Y-65565102D01*
X136726079Y-65612025D01*
X136755334Y-65654763D01*
X136861274Y-65765657D01*
X137064350Y-65841263D01*
X137337322Y-65873526D01*
X137486963Y-65871150D01*
X137688971Y-65853127D01*
X137796388Y-65818936D01*
X137841932Y-65753955D01*
X137851309Y-65708335D01*
X137889590Y-65596398D01*
X137930883Y-65565102D01*
X137979226Y-65616779D01*
G37*
G36*
X136866680Y-75482717D02*
G01*
X137021849Y-75552798D01*
X137227855Y-75693399D01*
X137464411Y-75908664D01*
X137697593Y-76163472D01*
X137893477Y-76422702D01*
X137950737Y-76514476D01*
X138045416Y-76665082D01*
X138120540Y-76763102D01*
X138133519Y-76774732D01*
X138139103Y-76836213D01*
X138104532Y-76871974D01*
X138068724Y-76889174D01*
X138005909Y-76902763D01*
X137903998Y-76912922D01*
X137750898Y-76919832D01*
X137534520Y-76923675D01*
X137242773Y-76924634D01*
X136863565Y-76922888D01*
X136384806Y-76918621D01*
X135794406Y-76912014D01*
X135597059Y-76909643D01*
X134998084Y-76902370D01*
X134509015Y-76896431D01*
X134427940Y-76625879D01*
X134356752Y-76356099D01*
X134340024Y-76209560D01*
X134555703Y-76209560D01*
X134587342Y-76432322D01*
X134628206Y-76547277D01*
X134670630Y-76627447D01*
X134727278Y-76675610D01*
X134826859Y-76698770D01*
X134998084Y-76703928D01*
X135248883Y-76698650D01*
X135585385Y-76686325D01*
X135801728Y-76663656D01*
X135905066Y-76619732D01*
X135902558Y-76543646D01*
X135801359Y-76424490D01*
X135608627Y-76251353D01*
X135566252Y-76214889D01*
X135299754Y-76017888D01*
X135045949Y-75887829D01*
X134827965Y-75833261D01*
X134668929Y-75862734D01*
X134650030Y-75876208D01*
X134577117Y-76008244D01*
X134555703Y-76209560D01*
X134340024Y-76209560D01*
X134334398Y-76160277D01*
X134359080Y-75995555D01*
X134397094Y-75890540D01*
X134525600Y-75719950D01*
X134717102Y-75649704D01*
X134960342Y-75676723D01*
X135244061Y-75797929D01*
X135557001Y-76010244D01*
X135871192Y-76293615D01*
X136070175Y-76490144D01*
X136212497Y-76612021D01*
X136328779Y-76677291D01*
X136449640Y-76703996D01*
X136577538Y-76709830D01*
X136794376Y-76716383D01*
X137077411Y-76729382D01*
X137365859Y-76746032D01*
X137369438Y-76746264D01*
X137601506Y-76756767D01*
X137774917Y-76755901D01*
X137859211Y-76744073D01*
X137862797Y-76739647D01*
X137815556Y-76610671D01*
X137689797Y-76431080D01*
X137509466Y-76225831D01*
X137298507Y-76019880D01*
X137080865Y-75838186D01*
X136880485Y-75705706D01*
X136860921Y-75695412D01*
X136607279Y-75566013D01*
X136439866Y-75740755D01*
X136286693Y-75990526D01*
X136231604Y-76213520D01*
X136190867Y-76402995D01*
X136145074Y-76469856D01*
X136105225Y-76417790D01*
X136082320Y-76250486D01*
X136080340Y-76162809D01*
X136103490Y-75944275D01*
X136191137Y-75765414D01*
X136277912Y-75657292D01*
X136460014Y-75494460D01*
X136645713Y-75437751D01*
X136866680Y-75482717D01*
G37*
G36*
X135077702Y-87103649D02*
G01*
X135329064Y-87121595D01*
X135627869Y-87150113D01*
X135947917Y-87186725D01*
X136263010Y-87228953D01*
X136525954Y-87270622D01*
X136717315Y-87311371D01*
X136973579Y-87375946D01*
X137266397Y-87455995D01*
X137567424Y-87543167D01*
X137848312Y-87629113D01*
X138080714Y-87705481D01*
X138236282Y-87763920D01*
X138282438Y-87788061D01*
X138374905Y-87812039D01*
X138402544Y-87797507D01*
X138429544Y-87814449D01*
X138422847Y-87917962D01*
X138431837Y-88069873D01*
X138540220Y-88194193D01*
X138553830Y-88204429D01*
X138833144Y-88432727D01*
X138996502Y-88623068D01*
X139047353Y-88781681D01*
X138989146Y-88914797D01*
X138961817Y-88941482D01*
X138788350Y-89064299D01*
X138548183Y-89198897D01*
X138295124Y-89315971D01*
X138222875Y-89343975D01*
X138041850Y-89410110D01*
X138365738Y-89755094D01*
X138534260Y-89950255D01*
X138624737Y-90090662D01*
X138630456Y-90159247D01*
X138549771Y-90159775D01*
X138417928Y-90089666D01*
X138266980Y-89974644D01*
X138128983Y-89840435D01*
X138035989Y-89712765D01*
X138018214Y-89667890D01*
X137963837Y-89593710D01*
X137934344Y-89553476D01*
X137791929Y-89513943D01*
X137643676Y-89562265D01*
X137630513Y-89572466D01*
X137621020Y-89575946D01*
X137496714Y-89621510D01*
X137417183Y-89608370D01*
X137350849Y-89597410D01*
X137250010Y-89514037D01*
X137236507Y-89476740D01*
X137245937Y-89417902D01*
X137309456Y-89417902D01*
X137386543Y-89436818D01*
X137417183Y-89437283D01*
X137518366Y-89424445D01*
X137508196Y-89376444D01*
X137493574Y-89360892D01*
X137406947Y-89317279D01*
X137340792Y-89360892D01*
X137309456Y-89417902D01*
X137245937Y-89417902D01*
X137257026Y-89348716D01*
X137299515Y-89298383D01*
X137345451Y-89239911D01*
X137334158Y-89228111D01*
X137809230Y-89228111D01*
X137862797Y-89278135D01*
X137963837Y-89286791D01*
X138044146Y-89228062D01*
X138053774Y-89192436D01*
X138000160Y-89150657D01*
X137926456Y-89136490D01*
X137818219Y-89159807D01*
X137809230Y-89228111D01*
X137334158Y-89228111D01*
X137282694Y-89174338D01*
X137266048Y-89163436D01*
X137134939Y-89078616D01*
X136963135Y-88966317D01*
X136927375Y-88942814D01*
X136708006Y-88798471D01*
X136544736Y-88926900D01*
X136312124Y-89035426D01*
X136093430Y-89042856D01*
X136045295Y-89044491D01*
X135772842Y-88965381D01*
X135523357Y-88809382D01*
X135325431Y-88587782D01*
X135242973Y-88423011D01*
X135443749Y-88423011D01*
X135495257Y-88533969D01*
X135624704Y-88669141D01*
X135794474Y-88799289D01*
X135966953Y-88895173D01*
X136093430Y-88928010D01*
X136274574Y-88904366D01*
X136431268Y-88845808D01*
X136519420Y-88770892D01*
X136525954Y-88745971D01*
X136472694Y-88695460D01*
X136333679Y-88613138D01*
X136157016Y-88525404D01*
X135898006Y-88422668D01*
X135677513Y-88366415D01*
X135519023Y-88360015D01*
X135446023Y-88406841D01*
X135443749Y-88423011D01*
X135242973Y-88423011D01*
X135236752Y-88410579D01*
X135238936Y-88282829D01*
X135341394Y-88200790D01*
X135524617Y-88167024D01*
X135769095Y-88184094D01*
X136055317Y-88254562D01*
X136155437Y-88289907D01*
X136341696Y-88353861D01*
X136474706Y-88386811D01*
X136516597Y-88385655D01*
X136504210Y-88316198D01*
X136422375Y-88185226D01*
X136292505Y-88020409D01*
X136136013Y-87849417D01*
X136008038Y-87728506D01*
X135739266Y-87534633D01*
X135457077Y-87397656D01*
X135209627Y-87338913D01*
X135882660Y-87338913D01*
X135894912Y-87381507D01*
X135971329Y-87474099D01*
X136098136Y-87597537D01*
X136144452Y-87638153D01*
X136280737Y-87770573D01*
X136356953Y-87876297D01*
X136362527Y-87916388D01*
X136374895Y-87960007D01*
X136409819Y-87958785D01*
X136482036Y-88002055D01*
X136579846Y-88133960D01*
X136654916Y-88270817D01*
X136780832Y-88485510D01*
X136943047Y-88662786D01*
X137179684Y-88843134D01*
X137218364Y-88869226D01*
X137621020Y-89138109D01*
X137907636Y-88998861D01*
X138081385Y-88893731D01*
X138200382Y-88783250D01*
X138226926Y-88734663D01*
X138287403Y-88624425D01*
X138367572Y-88631319D01*
X138407640Y-88679425D01*
X138401832Y-88771784D01*
X138331829Y-88908810D01*
X138314002Y-88934061D01*
X138242314Y-89052901D01*
X138235825Y-89115929D01*
X138246007Y-89118987D01*
X138349726Y-89089727D01*
X138511008Y-89018365D01*
X138678985Y-88929529D01*
X138797985Y-88851740D01*
X138841193Y-88760607D01*
X138821666Y-88657479D01*
X138753563Y-88609714D01*
X138688618Y-88567984D01*
X138556789Y-88456159D01*
X138381104Y-88294287D01*
X138284583Y-88201408D01*
X138073757Y-88001964D01*
X137910768Y-87872001D01*
X137756086Y-87788390D01*
X137570180Y-87728001D01*
X137409083Y-87689155D01*
X137167646Y-87629594D01*
X136964485Y-87571166D01*
X136841552Y-87525996D01*
X136837764Y-87524037D01*
X136712033Y-87484544D01*
X136511985Y-87448851D01*
X136365400Y-87432397D01*
X136158336Y-87409542D01*
X136002979Y-87382835D01*
X135948349Y-87365472D01*
X135882660Y-87338913D01*
X135209627Y-87338913D01*
X135204315Y-87337652D01*
X135171495Y-87336531D01*
X135031267Y-87309613D01*
X134901538Y-87245469D01*
X134820633Y-87169015D01*
X134822098Y-87109393D01*
X134899980Y-87098756D01*
X135077702Y-87103649D01*
G37*
G36*
X135103781Y-79559518D02*
G01*
X135142752Y-79678801D01*
X135153134Y-79804450D01*
X135123182Y-79876611D01*
X135120780Y-79877611D01*
X135110518Y-79930728D01*
X135152043Y-79987753D01*
X135218141Y-80104378D01*
X135274428Y-80286793D01*
X135286589Y-80348678D01*
X135334123Y-80549677D01*
X135413731Y-80660100D01*
X135558840Y-80706380D01*
X135749851Y-80715005D01*
X135960006Y-80725776D01*
X136231343Y-80752817D01*
X136464942Y-80784375D01*
X136996730Y-80810130D01*
X137506830Y-80724850D01*
X137878711Y-80579999D01*
X138057620Y-80461750D01*
X138113517Y-80347238D01*
X138050181Y-80228590D01*
X138048227Y-80226623D01*
X138016225Y-80145764D01*
X138043095Y-80117818D01*
X138134137Y-80124386D01*
X138231975Y-80210057D01*
X138298634Y-80334744D01*
X138308411Y-80397896D01*
X138251141Y-80524358D01*
X138096512Y-80663487D01*
X137870295Y-80795566D01*
X137690474Y-80870670D01*
X137546512Y-80928114D01*
X137511339Y-80965808D01*
X137571395Y-80999229D01*
X137576330Y-81000954D01*
X137695985Y-81050229D01*
X137888447Y-81137518D01*
X138112530Y-81244131D01*
X138117433Y-81246517D01*
X138356129Y-81374512D01*
X138493475Y-81480844D01*
X138549684Y-81581709D01*
X138552019Y-81594797D01*
X138540237Y-81754436D01*
X138440868Y-81862391D01*
X138238516Y-81931007D01*
X138105311Y-81952932D01*
X137795195Y-82015156D01*
X137608276Y-82104680D01*
X137542888Y-82223933D01*
X137597363Y-82375346D01*
X137719565Y-82515019D01*
X137903303Y-82639693D01*
X138170746Y-82731100D01*
X138324327Y-82764254D01*
X138574858Y-82823755D01*
X138720910Y-82885684D01*
X138754025Y-82929581D01*
X138724061Y-82973539D01*
X138619626Y-82990835D01*
X138418905Y-82983840D01*
X138324325Y-82976304D01*
X138040624Y-82964995D01*
X137852764Y-82986490D01*
X137799137Y-83010137D01*
X137747751Y-83079559D01*
X137767308Y-83108323D01*
X137931961Y-83192950D01*
X138132179Y-83315017D01*
X138331885Y-83450050D01*
X138495003Y-83573576D01*
X138585457Y-83661121D01*
X138588026Y-83665088D01*
X138616635Y-83752262D01*
X138572659Y-83841261D01*
X138441532Y-83964632D01*
X138262876Y-84089729D01*
X138085170Y-84175591D01*
X138043107Y-84187746D01*
X137926162Y-84232684D01*
X137897414Y-84285380D01*
X137897828Y-84286072D01*
X137872029Y-84328900D01*
X137771065Y-84344551D01*
X137650805Y-84358820D01*
X137620766Y-84411019D01*
X137683875Y-84515232D01*
X137841577Y-84684066D01*
X138063580Y-84861028D01*
X138251604Y-84917483D01*
X138419046Y-84891196D01*
X138470825Y-84814326D01*
X138406781Y-84689863D01*
X138271207Y-84557328D01*
X138136850Y-84426417D01*
X138107442Y-84357951D01*
X138174360Y-84356837D01*
X138328977Y-84427981D01*
X138412300Y-84477061D01*
X138570832Y-84627072D01*
X138628121Y-84794487D01*
X138594133Y-84949332D01*
X138478832Y-85061634D01*
X138292183Y-85101416D01*
X138207897Y-85091919D01*
X138057991Y-85063263D01*
X138199115Y-85232067D01*
X138416630Y-85538812D01*
X138527199Y-85806784D01*
X138529826Y-86028816D01*
X138423518Y-86197740D01*
X138340937Y-86253952D01*
X138214296Y-86303872D01*
X138092166Y-86291364D01*
X137955105Y-86233799D01*
X137808201Y-86165755D01*
X137720801Y-86129071D01*
X137712902Y-86127007D01*
X137697933Y-86180906D01*
X137711351Y-86314767D01*
X137744191Y-86486837D01*
X137787485Y-86655365D01*
X137832266Y-86778597D01*
X137860875Y-86816007D01*
X138047172Y-86930584D01*
X138217269Y-87120724D01*
X138330804Y-87336987D01*
X138350780Y-87416105D01*
X138355388Y-87585787D01*
X138316603Y-87657379D01*
X138258467Y-87622314D01*
X138205017Y-87472027D01*
X138204265Y-87468308D01*
X138106213Y-87247620D01*
X137931857Y-87082180D01*
X137718743Y-87006182D01*
X137695241Y-87004770D01*
X137512671Y-86999394D01*
X137512671Y-86409645D01*
X137517310Y-86146614D01*
X137529743Y-85933261D01*
X137547750Y-85800561D01*
X137558278Y-85774002D01*
X137627913Y-85784976D01*
X137753732Y-85864487D01*
X137831044Y-85927558D01*
X138043045Y-86080845D01*
X138200245Y-86119758D01*
X138303659Y-86044357D01*
X138337353Y-85956698D01*
X138331483Y-85756496D01*
X138240044Y-85515517D01*
X138078462Y-85270510D01*
X138021944Y-85205316D01*
X137769111Y-84926633D01*
X137595702Y-84723643D01*
X137491090Y-84582035D01*
X137444647Y-84487498D01*
X137444789Y-84428089D01*
X137478156Y-84284956D01*
X137480842Y-84243856D01*
X137533054Y-84167173D01*
X137592245Y-84152952D01*
X137715275Y-84125490D01*
X137898169Y-84056912D01*
X138098728Y-83966605D01*
X138274751Y-83873957D01*
X138384038Y-83798356D01*
X138396616Y-83783404D01*
X138364403Y-83723841D01*
X138243864Y-83620930D01*
X138057926Y-83493228D01*
X137974717Y-83441957D01*
X137700367Y-83258793D01*
X137545974Y-83107606D01*
X137509375Y-82984373D01*
X137588405Y-82885071D01*
X137655904Y-82849380D01*
X137774536Y-82777720D01*
X137776256Y-82706794D01*
X137658534Y-82620712D01*
X137615874Y-82597914D01*
X137439705Y-82467025D01*
X137382326Y-82308756D01*
X137414950Y-82154182D01*
X137551861Y-81957853D01*
X137764353Y-81830227D01*
X137944805Y-81798185D01*
X138134745Y-81772080D01*
X138290093Y-81706589D01*
X138369086Y-81620949D01*
X138372070Y-81601388D01*
X138318816Y-81540199D01*
X138183116Y-81456707D01*
X138085604Y-81409672D01*
X137919908Y-81325910D01*
X137816466Y-81253477D01*
X137799137Y-81226531D01*
X137744124Y-81187754D01*
X137617334Y-81175278D01*
X137451854Y-81160438D01*
X137346783Y-81124807D01*
X137252583Y-81101652D01*
X137057903Y-81077810D01*
X136789541Y-81055842D01*
X136474292Y-81038303D01*
X136414449Y-81035807D01*
X136060047Y-81024270D01*
X135815584Y-81023160D01*
X135664029Y-81033487D01*
X135588353Y-81056258D01*
X135570966Y-81085777D01*
X135533255Y-81135823D01*
X135491493Y-81121301D01*
X135444087Y-81103364D01*
X135484058Y-81165288D01*
X135545442Y-81286658D01*
X135600328Y-81466063D01*
X135641372Y-81663841D01*
X135661230Y-81840327D01*
X135652561Y-81955858D01*
X135634628Y-81978585D01*
X135603217Y-82030991D01*
X135642103Y-82093540D01*
X135682827Y-82200066D01*
X135651945Y-82252044D01*
X135591329Y-82286674D01*
X135546460Y-82238079D01*
X135509855Y-82090491D01*
X135481876Y-81893674D01*
X135432238Y-81525739D01*
X135379579Y-81265437D01*
X135310092Y-81093540D01*
X135209970Y-80990819D01*
X135065404Y-80938046D01*
X134862587Y-80915994D01*
X134776960Y-80912040D01*
X134565776Y-80899905D01*
X134457019Y-80876834D01*
X134425803Y-80830954D01*
X134445819Y-80754074D01*
X134502177Y-80698351D01*
X134632247Y-80676031D01*
X134839154Y-80680646D01*
X135022402Y-80691724D01*
X135127739Y-80681677D01*
X135167795Y-80626089D01*
X135155205Y-80500542D01*
X135102601Y-80280619D01*
X135084354Y-80206706D01*
X135039291Y-79977981D01*
X135015197Y-79763383D01*
X135013820Y-79596566D01*
X135036910Y-79511186D01*
X135047963Y-79506456D01*
X135103781Y-79559518D01*
G37*
G36*
X136777393Y-67494025D02*
G01*
X136922938Y-67548759D01*
X137033285Y-67601204D01*
X137251360Y-67762099D01*
X137361833Y-67951329D01*
X137423955Y-68096214D01*
X137475415Y-68171934D01*
X137483412Y-68175127D01*
X137539305Y-68121811D01*
X137604332Y-67995426D01*
X137656348Y-67846320D01*
X137673755Y-67742433D01*
X137682587Y-67671689D01*
X137719674Y-67710636D01*
X137743158Y-67750039D01*
X137781658Y-67930285D01*
X137727470Y-68129884D01*
X137606416Y-68286880D01*
X137509263Y-68434916D01*
X137477249Y-68587145D01*
X137433919Y-68905607D01*
X137305397Y-69154178D01*
X137073559Y-69363066D01*
X136973169Y-69427316D01*
X136764813Y-69534538D01*
X136613723Y-69579139D01*
X136535072Y-69562385D01*
X136544034Y-69485541D01*
X136610216Y-69397058D01*
X136691978Y-69290197D01*
X136716932Y-69233157D01*
X136659517Y-69162622D01*
X136512244Y-69101017D01*
X136312572Y-69057959D01*
X136097960Y-69043063D01*
X135999162Y-69048905D01*
X135817709Y-69075539D01*
X135735482Y-69112959D01*
X135724583Y-69178970D01*
X135734142Y-69218048D01*
X135813086Y-69363051D01*
X135940533Y-69495453D01*
X136070850Y-69571010D01*
X136103308Y-69575977D01*
X136188373Y-69594738D01*
X136369171Y-69645783D01*
X136620476Y-69721664D01*
X136917061Y-69814933D01*
X136965914Y-69830613D01*
X137290810Y-69928318D01*
X137598491Y-70008637D01*
X137855138Y-70063506D01*
X138026937Y-70084858D01*
X138032205Y-70084902D01*
X138217276Y-70098320D01*
X138299249Y-70143615D01*
X138308411Y-70180390D01*
X138251352Y-70258802D01*
X138133348Y-70286329D01*
X137960405Y-70289281D01*
X137736090Y-70284184D01*
X137655904Y-70280481D01*
X137479785Y-70277907D01*
X137370781Y-70289635D01*
X137353523Y-70300905D01*
X137384328Y-70370905D01*
X137463934Y-70513617D01*
X137544501Y-70648004D01*
X137649805Y-70836562D01*
X137719167Y-70994152D01*
X137735478Y-71062744D01*
X137682753Y-71209127D01*
X137556199Y-71335724D01*
X137403249Y-71402703D01*
X137332092Y-71401479D01*
X137162036Y-71396254D01*
X137072059Y-71416538D01*
X136994808Y-71455242D01*
X137011410Y-71501404D01*
X137103888Y-71571216D01*
X137272516Y-71662076D01*
X137477260Y-71738590D01*
X137496756Y-71744072D01*
X137673291Y-71808304D01*
X137725933Y-71866096D01*
X137658101Y-71909421D01*
X137473210Y-71930250D01*
X137417183Y-71931017D01*
X137235596Y-71941111D01*
X137120352Y-71966918D01*
X137098887Y-71987121D01*
X137145237Y-72056923D01*
X137261638Y-72165498D01*
X137317390Y-72209885D01*
X137515555Y-72399160D01*
X137588223Y-72568824D01*
X137535310Y-72718598D01*
X137482705Y-72769878D01*
X137341076Y-72884562D01*
X137506438Y-73081083D01*
X137625897Y-73299106D01*
X137619303Y-73512139D01*
X137487370Y-73710100D01*
X137460040Y-73735082D01*
X137335495Y-73809247D01*
X137168853Y-73829775D01*
X137021144Y-73819475D01*
X136835317Y-73806452D01*
X136744352Y-73824607D01*
X136718041Y-73881296D01*
X136717801Y-73893355D01*
X136762268Y-74144929D01*
X136891341Y-74302102D01*
X136969605Y-74339841D01*
X137107036Y-74414895D01*
X137272401Y-74541385D01*
X137432889Y-74688979D01*
X137555686Y-74827349D01*
X137607981Y-74926165D01*
X137608160Y-74930080D01*
X137565577Y-74929852D01*
X137455608Y-74859875D01*
X137346059Y-74772228D01*
X137148011Y-74628758D01*
X136952460Y-74529834D01*
X136788254Y-74485609D01*
X136684241Y-74506237D01*
X136666539Y-74533072D01*
X136591037Y-74597220D01*
X136545394Y-74604701D01*
X136485306Y-74580136D01*
X136475623Y-74486038D01*
X136494655Y-74365979D01*
X136520639Y-74155672D01*
X136532544Y-73899957D01*
X136531868Y-73790533D01*
X136522552Y-73453807D01*
X136712069Y-73551811D01*
X136951512Y-73636433D01*
X137175254Y-73648312D01*
X137355047Y-73593502D01*
X137462644Y-73478055D01*
X137480842Y-73387080D01*
X137427918Y-73260866D01*
X137296205Y-73121066D01*
X137126293Y-72998353D01*
X136958770Y-72923401D01*
X136858859Y-72917044D01*
X136702489Y-72918424D01*
X136555804Y-72865711D01*
X136469143Y-72780346D01*
X136462295Y-72748124D01*
X136518665Y-72709987D01*
X136690716Y-72707292D01*
X136829970Y-72720079D01*
X137071278Y-72736310D01*
X137227900Y-72715037D01*
X137323328Y-72663970D01*
X137393324Y-72600603D01*
X137397875Y-72542494D01*
X137325935Y-72456662D01*
X137221525Y-72360044D01*
X137026067Y-72155992D01*
X136943483Y-71997330D01*
X136970821Y-71876582D01*
X137014416Y-71835344D01*
X137074426Y-71776645D01*
X137047877Y-71724840D01*
X136920033Y-71650820D01*
X136775621Y-71538330D01*
X136718254Y-71413274D01*
X136756371Y-71307083D01*
X136817627Y-71269407D01*
X136945621Y-71243945D01*
X137130738Y-71231130D01*
X137165513Y-71230766D01*
X137368508Y-71203460D01*
X137472884Y-71118317D01*
X137499237Y-71018310D01*
X137467005Y-70897251D01*
X137365485Y-70731663D01*
X137197778Y-70515002D01*
X137010202Y-70284420D01*
X136274720Y-70319159D01*
X136054177Y-70323323D01*
X135969640Y-70324919D01*
X135603570Y-70318220D01*
X135199162Y-70300928D01*
X134779068Y-70274908D01*
X134365938Y-70242028D01*
X133982423Y-70204153D01*
X133651177Y-70163150D01*
X133394848Y-70120885D01*
X133236090Y-70079225D01*
X133210121Y-70066657D01*
X133112749Y-69956334D01*
X133105160Y-69908398D01*
X133279338Y-69908398D01*
X133325364Y-69962112D01*
X133327082Y-69962314D01*
X133424127Y-69975796D01*
X133502145Y-69988260D01*
X133819792Y-70031004D01*
X134228654Y-70071095D01*
X134692626Y-70106305D01*
X135175606Y-70134402D01*
X135641491Y-70153158D01*
X136054177Y-70160341D01*
X136255403Y-70158316D01*
X136500228Y-70142127D01*
X136626277Y-70105638D01*
X136641103Y-70044408D01*
X136573699Y-69971075D01*
X136462364Y-69918845D01*
X136286242Y-69871896D01*
X136239488Y-69863342D01*
X136031717Y-69824760D01*
X135770877Y-69770632D01*
X135602897Y-69733163D01*
X135350848Y-69693262D01*
X135043362Y-69672450D01*
X134703550Y-69668983D01*
X134354520Y-69681118D01*
X134019381Y-69707113D01*
X133721244Y-69745225D01*
X133483218Y-69793710D01*
X133328411Y-69850826D01*
X133279338Y-69908398D01*
X133105160Y-69908398D01*
X133092227Y-69826713D01*
X133151361Y-69735184D01*
X133237231Y-69707349D01*
X133418649Y-69663295D01*
X133665956Y-69609892D01*
X133858059Y-69571466D01*
X134393435Y-69492828D01*
X134883359Y-69480940D01*
X135390391Y-69535147D01*
X135501762Y-69554298D01*
X135643573Y-69573009D01*
X135689103Y-69548122D01*
X135668638Y-69473236D01*
X135586408Y-69212247D01*
X135598843Y-69032913D01*
X135712315Y-68925161D01*
X135933197Y-68878918D01*
X136046806Y-68875378D01*
X136374839Y-68899574D01*
X136625554Y-68967886D01*
X136780017Y-69073898D01*
X136814109Y-69135335D01*
X136884085Y-69241245D01*
X136978802Y-69238051D01*
X137081839Y-69137128D01*
X137176777Y-68949854D01*
X137205638Y-68864063D01*
X137266978Y-68638775D01*
X137279313Y-68508053D01*
X137237182Y-68446823D01*
X137135126Y-68430009D01*
X137111054Y-68429764D01*
X136961450Y-68405057D01*
X136822570Y-68345405D01*
X136731784Y-68272509D01*
X136726459Y-68208071D01*
X136727495Y-68207004D01*
X136809392Y-68200109D01*
X136898272Y-68233629D01*
X137073005Y-68296556D01*
X137189768Y-68277351D01*
X137226205Y-68194981D01*
X137181389Y-68045789D01*
X137067976Y-67861951D01*
X136917522Y-67687433D01*
X136784452Y-67579490D01*
X136688886Y-67507709D01*
X136692954Y-67479781D01*
X136777393Y-67494025D01*
G37*
X99568724Y-88152500D02*
X99059276Y-88152500D01*
X99568724Y-87107500D02*
X99059276Y-87107500D01*
D11*
X102700000Y-92160000D02*
X114300000Y-92160000D01*
X102700000Y-108160000D02*
X102700000Y-92160000D01*
X104200000Y-101060000D02*
X104200000Y-108160000D01*
X104200000Y-108160000D02*
X102700000Y-108160000D01*
X114300000Y-101060000D02*
X104200000Y-101060000D01*
X114300000Y-101060000D02*
X124400000Y-101060000D01*
X124400000Y-101060000D02*
X124400000Y-108160000D01*
X124400000Y-108160000D02*
X125900000Y-108160000D01*
X125900000Y-92160000D02*
X114300000Y-92160000D01*
X125900000Y-108160000D02*
X125900000Y-92160000D01*
D12*
X103080000Y-67384000D02*
X112820000Y-67384000D01*
X103080000Y-68264000D02*
X103080000Y-67384000D01*
X103080000Y-71944000D02*
X103080000Y-72824000D01*
X103080000Y-72824000D02*
X112820000Y-72824000D01*
X104505000Y-67384000D02*
X104505000Y-72824000D01*
X104625000Y-67384000D02*
X104625000Y-72824000D01*
X104745000Y-67384000D02*
X104745000Y-72824000D01*
X112820000Y-67384000D02*
X112820000Y-68264000D01*
X112820000Y-72824000D02*
X112820000Y-71944000D01*
G36*
X130325091Y-72874909D02*
G01*
X131679757Y-72874909D01*
X131679757Y-73182788D01*
X130325091Y-73182788D01*
X130325091Y-74075636D01*
X131679757Y-74075636D01*
X131679757Y-74383515D01*
X130325091Y-74383515D01*
X130325091Y-75276364D01*
X131679757Y-75276364D01*
X131679757Y-75584242D01*
X130325091Y-75584242D01*
X130325091Y-76479381D01*
X131679813Y-76461697D01*
X131679785Y-76623333D01*
X131679757Y-76784970D01*
X130325091Y-76784970D01*
X130325091Y-77647030D01*
X131679757Y-77647030D01*
X131679757Y-77985697D01*
X130325091Y-77985697D01*
X130325091Y-78847757D01*
X131679757Y-78847757D01*
X131679757Y-79186424D01*
X130325091Y-79186424D01*
X130325091Y-80048485D01*
X131679757Y-80048485D01*
X131679757Y-80387151D01*
X130325091Y-80387151D01*
X130325091Y-81249212D01*
X131679757Y-81249212D01*
X131679757Y-81587879D01*
X130325091Y-81587879D01*
X130325091Y-82449939D01*
X131679757Y-82449939D01*
X131679757Y-82788606D01*
X130325091Y-82788606D01*
X130325091Y-83650667D01*
X131679757Y-83650667D01*
X131679757Y-83989333D01*
X130325091Y-83989333D01*
X130325091Y-84851394D01*
X131679757Y-84851394D01*
X131679757Y-85190061D01*
X130325091Y-85190061D01*
X130325091Y-86052121D01*
X132172363Y-86052121D01*
X132172363Y-86390788D01*
X130325091Y-86390788D01*
X130325091Y-87683879D01*
X132880485Y-87683879D01*
X132880485Y-89808242D01*
X127369454Y-89808242D01*
X127369454Y-87684562D01*
X128639454Y-87676523D01*
X129909454Y-87668485D01*
X129909454Y-86406182D01*
X128976528Y-86398031D01*
X128043601Y-86389880D01*
X128052891Y-86228698D01*
X128062182Y-86067515D01*
X128994381Y-86059365D01*
X129926580Y-86051216D01*
X129909454Y-85205454D01*
X129222836Y-85197164D01*
X128536217Y-85188874D01*
X128545502Y-85027831D01*
X128554788Y-84866788D01*
X129240683Y-84858500D01*
X129926578Y-84850211D01*
X129909454Y-84004727D01*
X129222836Y-83996437D01*
X128536217Y-83988147D01*
X128545502Y-83827104D01*
X128554788Y-83666061D01*
X129240683Y-83657772D01*
X129926578Y-83649484D01*
X129909454Y-82804000D01*
X129222836Y-82795710D01*
X128536217Y-82787419D01*
X128545502Y-82626376D01*
X128554788Y-82465333D01*
X129926578Y-82448757D01*
X129909454Y-81603273D01*
X129222836Y-81594982D01*
X128536217Y-81586692D01*
X128545502Y-81425649D01*
X128554788Y-81264606D01*
X129240683Y-81256318D01*
X129926578Y-81248029D01*
X129909454Y-80402545D01*
X129222836Y-80394255D01*
X128536217Y-80385965D01*
X128545502Y-80224922D01*
X128554788Y-80063879D01*
X129240683Y-80055590D01*
X129926578Y-80047302D01*
X129909454Y-79201818D01*
X129222836Y-79193528D01*
X128536217Y-79185238D01*
X128545502Y-79024195D01*
X128554788Y-78863151D01*
X129926578Y-78846575D01*
X129909454Y-78001091D01*
X129222836Y-77992801D01*
X128536217Y-77984510D01*
X128545502Y-77823467D01*
X128554788Y-77662424D01*
X129926578Y-77645848D01*
X129909454Y-76800364D01*
X129222836Y-76792073D01*
X128536217Y-76783783D01*
X128545502Y-76628563D01*
X128554788Y-76473344D01*
X129232121Y-76467520D01*
X129909454Y-76461697D01*
X129909454Y-75599636D01*
X128539394Y-75583064D01*
X128539394Y-75277542D01*
X129909454Y-75260970D01*
X129909454Y-74398909D01*
X128539394Y-74382337D01*
X128539394Y-74076814D01*
X129909454Y-74060242D01*
X129909454Y-73198182D01*
X128539394Y-73181610D01*
X128539394Y-72876087D01*
X129909454Y-72859515D01*
X129925678Y-70812121D01*
X130325091Y-70812121D01*
X130325091Y-72874909D01*
G37*
X104180000Y-83914000D02*
X104180000Y-89155000D01*
X104180000Y-83914000D02*
X107450000Y-83914000D01*
X104180000Y-86155000D02*
X107450000Y-86155000D01*
X104180000Y-89155000D02*
X124420000Y-89155000D01*
X110250000Y-83914000D02*
X112901000Y-83914000D01*
X110250000Y-86155000D02*
X112901000Y-86155000D01*
X112650000Y-83914000D02*
X112650000Y-86155000D01*
X115700000Y-83914000D02*
X118350000Y-83914000D01*
X115700000Y-86155000D02*
X118350000Y-86155000D01*
X115950000Y-83914000D02*
X115950000Y-86155000D01*
X121150000Y-83914000D02*
X124420000Y-83914000D01*
X121150000Y-86155000D02*
X124420000Y-86155000D01*
X124420000Y-83914000D02*
X124420000Y-89155000D01*
%LPC*%
D15*
X105300000Y-81356200D03*
X123300000Y-81356200D03*
D16*
X76200000Y-95662750D03*
D17*
X93472000Y-87630000D03*
X93472000Y-97630000D03*
D18*
X101600000Y-50254000D03*
D19*
X114300000Y-50254000D03*
D20*
X98044000Y-110236000D03*
X93216000Y-110232000D03*
D21*
X96899000Y-101596000D03*
X94359000Y-101596000D03*
D18*
X101600000Y-63500000D03*
D19*
X114300000Y-63500000D03*
D22*
X101600000Y-44196000D03*
D16*
X152400000Y-57753250D03*
D18*
X101600000Y-56896000D03*
D19*
X114300000Y-56896000D03*
D23*
X100584000Y-101496500D03*
X100584000Y-99671500D03*
D24*
X108850000Y-103632000D03*
D25*
X114300000Y-103632000D03*
X119750000Y-103632000D03*
D16*
X76200000Y-57753250D03*
D22*
X114300000Y-110744000D03*
D26*
X100226500Y-87630000D03*
X98401500Y-87630000D03*
D15*
X105300000Y-99060000D03*
X123300000Y-99060000D03*
D18*
X101600000Y-70104000D03*
D19*
X114300000Y-70104000D03*
D16*
X152400000Y-95662750D03*
D24*
X108850000Y-85935000D03*
D25*
X114300000Y-85935000D03*
X119750000Y-85935000D03*
%LPD*%
M02*
