G04 #@! TF.GenerationSoftware,KiCad,Pcbnew,7.0.5*
G04 #@! TF.CreationDate,2024-02-23T12:49:32-06:00*
G04 #@! TF.ProjectId,CoilFiringBoard_Hardware,436f696c-4669-4726-996e-67426f617264,rev?*
G04 #@! TF.SameCoordinates,Original*
G04 #@! TF.FileFunction,Legend,Bot*
G04 #@! TF.FilePolarity,Positive*
%FSLAX46Y46*%
G04 Gerber Fmt 4.6, Leading zero omitted, Abs format (unit mm)*
G04 Created by KiCad (PCBNEW 7.0.5) date 2024-02-23 12:49:32*
%MOMM*%
%LPD*%
G01*
G04 APERTURE LIST*
%ADD10C,0.150000*%
%ADD11C,3.000000*%
%ADD12R,25.400000X38.100000*%
%ADD13C,2.000000*%
%ADD14R,3.200000X3.200000*%
%ADD15O,3.200000X3.200000*%
%ADD16C,3.450000*%
%ADD17C,1.524000*%
%ADD18C,3.800000*%
%ADD19R,2.500000X4.500000*%
%ADD20O,2.500000X4.500000*%
G04 APERTURE END LIST*
D10*
X106172000Y-47244000D02*
X106172000Y-113284000D01*
X116840000Y-47244000D02*
X106172000Y-47244000D01*
X106172000Y-113284000D02*
X116840000Y-113284000D01*
X88900000Y-85344000D02*
X104648000Y-85344000D01*
X117856000Y-38608000D02*
X117856000Y-114808000D01*
X104648000Y-85344000D02*
X104648000Y-38608000D01*
X116840000Y-113284000D02*
X116840000Y-47244000D01*
X88900000Y-114808000D02*
X88900000Y-85344000D01*
%LPC*%
D11*
X105300000Y-81356200D03*
X123300000Y-81356200D03*
D12*
X76200000Y-95662750D03*
D13*
X93472000Y-87630000D03*
X93472000Y-97630000D03*
D14*
X101600000Y-50254000D03*
D15*
X114300000Y-50254000D03*
D16*
X98044000Y-110236000D03*
X93216000Y-110232000D03*
D17*
X96899000Y-101596000D03*
X94359000Y-101596000D03*
D14*
X101600000Y-63500000D03*
D15*
X114300000Y-63500000D03*
D18*
X101600000Y-44196000D03*
D12*
X152400000Y-57753250D03*
D14*
X101600000Y-56896000D03*
D15*
X114300000Y-56896000D03*
D19*
X108850000Y-103632000D03*
D20*
X114300000Y-103632000D03*
X119750000Y-103632000D03*
D12*
X76200000Y-57753250D03*
D18*
X114300000Y-110744000D03*
D11*
X105300000Y-99060000D03*
X123300000Y-99060000D03*
D14*
X101600000Y-70104000D03*
D15*
X114300000Y-70104000D03*
D12*
X152400000Y-95662750D03*
D19*
X108850000Y-85935000D03*
D20*
X114300000Y-85935000D03*
X119750000Y-85935000D03*
%LPD*%
M02*
